<svg id="svg" version="1.1" viewBox="0 0 300 216" width="300" height="216" xmlns="http://www.w3.org/2000/svg"><g xmlns="http://www.w3.org/2000/svg" fill="none" fill-rule="nonzero" stroke="none" stroke-width="1" stroke-linecap="butt" stroke-linejoin="miter" stroke-miterlimit="10" stroke-dasharray="" stroke-dashoffset="0" font-family="none" font-weight="none" font-size="none" text-anchor="none" style="mix-blend-mode: normal"><path d="M0,0c99,0 198,0 300,0c0,71.28 0,142.56 0,216c-99,0 -198,0 -300,0c0,-71.28 0,-142.56 0,-216z" fill="#fbfbfb"/><path d="M0,0c99,0 198,0 300,0c0,71.28 0,142.56 0,216c-99,0 -198,0 -300,0c0,-71.28 0,-142.56 0,-216zM37.16667,27c-0.01239,15.55902 -0.01389,31.11806 -0.01042,46.67708c0.0015,8.661 0.00301,17.32199 0.00456,26.24544c0.00194,6.73556 0.00387,13.47113 0.00586,20.41081c-5.885,0 -11.77,0 -17.83333,0c-0.00447,11.41319 -0.00772,22.82639 -0.01042,34.23958c-0.00193,6.35572 -0.00387,12.71145 -0.00586,19.25977c-1.6934,8.32411 -1.6934,8.32411 0.18294,15.16732c4.4027,0.04051 8.80551,0.0696 13.20833,0.09375c2.44836,0.01396 4.89672,0.02793 7.41927,0.04232c4.73544,0.02161 9.47028,0.03813 14.20573,0.0306c0,-0.935 0,-1.87 0,-2.83333c3.355,0 6.71,0 10.16667,0c0,-4.18 0,-8.36 0,-12.66667c28.16,0.055 56.32,0.11 85.33333,0.16667c0,-5.885 0,-11.77 0,-17.83333c1.375,0 2.75,0 4.16667,0c0,0.11 0,0.22 0,0.33333c1.87,0 3.74,0 5.66667,0c0.055,4.73 0.11,9.46 0.16667,14.33333c3.52,0 7.04,0 10.66667,0c0.055,-4.84 0.11,-9.68 0.16667,-14.66667c1.375,0 2.75,0 4.16667,0c0,0.11 0,0.22 0,0.33333c1.925,0 3.85,0 5.83333,0c0,5.775 0,11.55 0,17.5c25.74,-0.0825 25.74,-0.0825 52,-0.16667c0,4.18 0,8.36 0,12.66667c3.41,0 6.82,0 10.33333,0c0,0.935 0,1.87 0,2.83333c11.61124,0 23.2223,-0.0963 34.83333,-0.16667c0,-20.955 0,-41.91 0,-63.5c-5.94,0 -11.88,0 -18,0c0.01203,-4.45521 0.02406,-8.91043 0.03646,-13.50065c0.0232,-8.87358 0.0232,-8.87358 0.04688,-17.92643c0.0232,-8.75048 0.0232,-8.75048 0.04688,-17.67773c0.03398,-16.52058 0.03646,-33.04123 0.03646,-49.56185c-37.10764,-0.00447 -74.21528,-0.00772 -111.32292,-0.01042c-20.66432,-0.00193 -41.32863,-0.00387 -62.61914,-0.00586c-26.83231,-5.66774 -26.83231,-5.66774 -48.89128,0.18294z" fill="#fdfdfd"/><path d="M86.05794,26.81706c20.66432,0.00193 41.32863,0.00387 62.61914,0.00586c30.99712,0.00226 30.99712,0.00226 62.62044,0.00456c16.07182,0.00193 32.14363,0.00387 48.70247,0.00586c0,22.41364 -0.0239,44.82612 -0.08333,67.23958c-0.0232,8.87358 -0.0232,8.87358 -0.04687,17.92643c-0.01203,4.45521 -0.02406,8.91043 -0.03646,13.50065c5.94,0 11.88,0 18,0c0,20.955 0,41.91 0,63.5c-27.5,0.16667 -27.5,0.16667 -34.83333,0.16667c0,-0.935 0,-1.87 0,-2.83333c-3.41,0 -6.82,0 -10.33333,0c0,-4.18 0,-8.36 0,-12.66667c-25.74,0.0825 -25.74,0.0825 -52,0.16667c0,-5.775 0,-11.55 0,-17.5c-1.925,0 -3.85,0 -5.83333,0c0,-0.11 0,-0.22 0,-0.33333c-1.375,0 -2.75,0 -4.16667,0c-0.055,4.84 -0.11,9.68 -0.16667,14.66667c-3.52,0 -7.04,0 -10.66667,0c-0.055,-4.73 -0.11,-9.46 -0.16667,-14.33333c-1.87,0 -3.74,0 -5.66667,0c0,-0.11 0,-0.22 0,-0.33333c-1.375,0 -2.75,0 -4.16667,0c0,5.885 0,11.77 0,17.83333c-28.16,-0.055 -56.32,-0.11 -85.33333,-0.16667c0,4.18 0,8.36 0,12.66667c-3.355,0 -6.71,0 -10.16667,0c0,0.935 0,1.87 0,2.83333c-7.20852,0.01146 -14.41661,-0.0318 -21.625,-0.07292c-3.7009,-0.0203 -3.7009,-0.0203 -7.47656,-0.04102c-5.73177,-0.05273 -5.73177,-0.05273 -5.89844,-0.2194c-0.01239,-11.42013 -0.01389,-22.84028 -0.01042,-34.26042c0.00151,-6.35615 0.00301,-12.71231 0.00456,-19.26107c0.00193,-4.94291 0.00387,-9.88582 0.00586,-14.97851c5.885,0 11.77,0 17.83333,0c-0.00193,-6.73557 -0.00387,-13.47113 -0.00586,-20.41081c-0.0015,-8.661 -0.00301,-17.32199 -0.00456,-26.24544c-0.00193,-8.66057 -0.00387,-17.32113 -0.00586,-26.24414c0.01641,-20.59955 0.01641,-20.59955 48.90755,-20.61589zM38.83333,28.66667c-0.055,2.035 -0.11,4.07 -0.16667,6.16667c-0.11,0 -0.22,0 -0.33333,0c0,4.4 0,8.8 0,13.33333c0.165,0.055 0.33,0.11 0.5,0.16667c0.055,1.98 0.11,3.96 0.16667,6c11.495,0 22.99,0 34.83333,0c0,7.645 0,15.29 0,23.16667c-0.33,0 -0.66,0 -1,0c0,-7.04 0,-14.08 0,-21.33333c-11.165,0 -22.33,0 -33.83333,0c-0.14616,5.55424 -0.18316,11.09021 -0.17708,16.64583c0.00344,3.14188 0.00688,6.28375 0.01042,9.52083c11.55,0 23.1,0 35,0c0,7.425 0,14.85 0,22.5c-0.33,0 -0.66,0 -1,0c0,-7.095 0,-14.19 0,-21.5c-11.22,0 -22.44,0 -34,0c0,2.145 0,4.29 0,6.5c-0.22,0 -0.44,0 -0.66667,0c0,4.4 0,8.8 0,13.33333c0.22,0.055 0.44,0.11 0.66667,0.16667c0.055,2.09 0.11,4.18 0.16667,6.33333c11.495,0 22.99,0 34.83333,0c0,3.19 0,6.38 0,9.66667c-0.165,0 -0.33,0 -0.5,0c0,3.3 0,6.6 0,10c0.165,0 0.33,0 0.5,0c0,14.135 0,28.27 0,42.83333c24.475,0 48.95,0 74.16667,0c0,-5.61 0,-11.22 0,-17c0.55,0 1.1,0 1.66667,0c0,0.165 0,0.33 0,0.5c3.33499,0.12662 6.66263,0.189 10,0.16667c0,-0.165 0,-0.33 0,-0.5c3.63,-0.055 7.26,-0.11 11,-0.16667c0,0.165 0,0.33 0,0.5c3.33499,0.12662 6.66263,0.189 10,0.16667c0.11,-0.22 0.22,-0.44 0.33333,-0.66667c0.495,-0.055 0.99,-0.11 1.5,-0.16667c0,5.665 0,11.33 0,17.16667c25.025,0 50.05,0 75.83333,0c0.00447,-18.86458 0.00772,-37.72917 0.01042,-56.59375c0.00194,-10.50522 0.00387,-21.01043 0.00586,-31.83399c0.21123,-13.79631 0.21123,-13.79631 -0.18294,-27.57226c-0.935,0 -1.87,0 -2.83333,0c0,-0.11 0,-0.22 0,-0.33333c-1.54,0 -3.08,0 -4.66667,0c0,0.11 0,0.22 0,0.33333c-2.255,0 -4.51,0 -6.83333,0c0,-0.605 0,-1.21 0,-1.83333c0.935,0 1.87,0 2.83333,0c0.01642,-6.22463 0.02148,-12.44443 -0.16667,-18.66667c-1.58512,-0.20453 -3.02799,-0.16667 -4.66667,-0.16667c0,3.74 0,7.48 0,11.33333c0.275,0 0.55,0 0.83333,0c0,0.33 0,0.66 0,1c-0.935,0 -1.87,0 -2.83333,0c0.01031,-0.2475 0.02062,-0.495 0.03125,-0.75c-0.00297,-1.05104 -0.22162,-1.8696 -0.89583,-2.69792c-0.91701,-0.75399 -1.59384,-1.27891 -2.80208,-1.21875c-0.2039,3.72125 -0.18243,7.44091 -0.16667,11.16667c0.935,0 1.87,0 2.83333,0c0,0.605 0,1.21 0,1.83333c-4.125,0 -8.25,0 -12.5,0c0,-0.605 0,-1.21 0,-1.83333c2.86,0 5.72,0 8.66667,0c0,-8.47 0,-16.94 0,-25.66667c-1.94946,-0.17722 -3.85495,-0.18869 -5.8125,-0.1875c-0.70082,-0.00043 -1.40164,-0.00086 -2.1237,-0.0013c-1.85556,0.0199 -3.71024,0.10054 -5.5638,0.1888c0,9.075 0,18.15 0,27.5c-3.85,0 -7.7,0 -11.66667,0c0,-0.935 0,-1.87 0,-2.83333c-0.33007,-0.67664 -0.50329,-0.99695 -1,-1.5c-0.10441,-0.10914 -0.20883,-0.21828 -0.31641,-0.33073c-0.94354,-0.90252 -1.85632,-1.33594 -3.18359,-1.33594c0,1.98 0,3.96 0,6c-3.85,0 -7.7,0 -11.66667,0c0,-0.605 0,-1.21 0,-1.83333c3.465,0 6.93,0 10.5,0c0,-8.47 0,-16.94 0,-25.66667c-2.54084,-0.12099 -5.04269,-0.18909 -7.58333,-0.1875c-0.68578,-0.00043 -1.37156,-0.00086 -2.07812,-0.0013c-1.83604,0.02027 -3.67114,0.10147 -5.50521,0.1888c0,9.075 0,18.15 0,27.5c-14.19,0 -28.38,0 -43,0c0,-0.22 0,-0.44 0,-0.66667c-1.925,0 -3.85,0 -5.83333,0c0,-0.11 0,-0.22 0,-0.33333c-1.375,0 -2.75,0 -4.16667,0c0,0.33 0,0.66 0,1c-7.15,0 -14.3,0 -21.66667,0c-0.055,-0.22 -0.11,-0.44 -0.16667,-0.66667c-1.98,0 -3.96,0 -6,0c0,-0.11 0,-0.22 0,-0.33333c-1.375,0 -2.75,0 -4.16667,0c0,0.33 0,0.66 0,1c-7.205,0 -14.41,0 -21.83333,0c0,-9.075 0,-18.15 0,-27.5c-14.44924,-0.18319 -28.88414,-0.1877 -43.33333,0z" fill="#121212"/><path d="M257.83333,26.83333c0.715,0 1.43,0 2.16667,0c0.00852,22.41337 -0.0239,44.82629 -0.08333,67.23958c-0.0232,8.87358 -0.0232,8.87358 -0.04687,17.92643c-0.01203,4.45522 -0.02406,8.91043 -0.03646,13.50065c5.94,0 11.88,0 18,0c0,20.955 0,41.91 0,63.5c-27.5,0.16667 -27.5,0.16667 -34.83333,0.16667c0,-0.935 0,-1.87 0,-2.83333c-3.41,0 -6.82,0 -10.33333,0c0,-4.18 0,-8.36 0,-12.66667c-25.74,0.0825 -25.74,0.0825 -52,0.16667c0,-5.775 0,-11.55 0,-17.5c-1.925,0 -3.85,0 -5.83333,0c0,-0.11 0,-0.22 0,-0.33333c-1.375,0 -2.75,0 -4.16667,0c-0.055,4.84 -0.11,9.68 -0.16667,14.66667c-3.52,0 -7.04,0 -10.66667,0c-0.055,-4.73 -0.11,-9.46 -0.16667,-14.33333c-1.87,0 -3.74,0 -5.66667,0c0,-0.11 0,-0.22 0,-0.33333c-1.375,0 -2.75,0 -4.16667,0c0,5.885 0,11.77 0,17.83333c-28.16,-0.055 -56.32,-0.11 -85.33333,-0.16667c0,4.18 0,8.36 0,12.66667c-3.355,0 -6.71,0 -10.16667,0c0,0.935 0,1.87 0,2.83333c-7.20853,0.01146 -14.41661,-0.0318 -21.625,-0.07292c-3.7009,-0.0203 -3.7009,-0.0203 -7.47656,-0.04102c-5.73177,-0.05273 -5.73177,-0.05273 -5.89844,-0.2194c-0.01238,-5.55901 -0.01389,-11.11805 -0.01042,-16.67708c0.0015,-3.09225 0.00301,-6.18449 0.00456,-9.37044c0.00194,-2.40431 0.00387,-4.80863 0.00586,-7.28581c0.55,0 1.1,0 1.66667,0c0,-4.18 0,-8.36 0,-12.66667c5.335,0 10.67,0 16.16667,0c0,5.5 0,11 0,16.66667c0.275,0 0.55,0 0.83333,0c0,1.32 0,2.64 0,4c-0.11,0 -0.22,0 -0.33333,0c0,0.275 0,0.55 0,0.83333c-0.165,0 -0.33,0 -0.5,0c0,0.11 0,0.22 0,0.33333c0.165,0 0.33,0 0.5,0c0,1.54 0,3.08 0,4.66667c-0.165,0 -0.33,0 -0.5,0c0,1.485 0,2.97 0,4.5c1.485,0 2.97,0 4.5,0c0,-0.22 0,-0.44 0,-0.66667c34.65,0 69.3,0 105,0c0,-0.165 0,-0.33 0,-0.5c-34.65,0 -69.3,0 -105,0c0,-0.11 0,-0.22 0,-0.33333c23.75383,-0.14399 47.50617,-0.18414 71.26042,-0.17708c9.89001,0.00226 9.89001,0.00226 19.97982,0.00456c4.98072,0.00194 9.96144,0.00387 15.0931,0.00586c0,-5.61 0,-11.22 0,-17c0.55,0 1.1,0 1.66667,0c0,0.165 0,0.33 0,0.5c0.3169,-0.00193 0.63379,-0.00387 0.96029,-0.00586c3.01742,-0.01041 6.02495,0.04701 9.03971,0.17253c0,-0.165 0,-0.33 0,-0.5c1.56879,-0.52293 4.19182,-0.18026 5.78125,-0.17708c1.45503,0.00226 1.45503,0.00226 2.93945,0.00456c1.12825,0.0029 1.12825,0.0029 2.2793,0.00586c0,0.165 0,0.33 0,0.5c0.3169,-0.00193 0.63379,-0.00387 0.96029,-0.00586c3.01742,-0.01041 6.02495,0.04701 9.03971,0.17253c0.055,-0.22 0.11,-0.44 0.16667,-0.66667c0.055,-0.055 0.11,-0.11 0.16667,-0.16667c0.495,0 0.99,0 1.5,0c0,5.665 0,11.33 0,17.16667c25.025,0 50.05,0 75.83333,0c-0.04125,-9.35344 -0.04125,-9.35344 -0.08333,-18.89583c-0.11872,-32.42356 -0.0973,-64.84711 -0.08333,-97.27083c-0.88,0 -1.76,0 -2.66667,0c0,-0.55 0,-1.1 0,-1.66667c-2.585,0 -5.17,0 -7.83333,0c0,-6.38 0,-12.76 0,-19.33333c0.99,0 1.98,0 3,0c0,0.22 0,0.44 0,0.66667c0.55,0 1.1,0 1.66667,0c0,3.63 0,7.26 0,11c-0.22,0 -0.44,0 -0.66667,0c-0.06875,-0.25437 -0.1375,-0.50875 -0.20833,-0.77083c-0.21735,-0.7252 -0.47403,-1.30217 -0.95833,-1.89583c-0.11,0 -0.22,0 -0.33333,0c0.19078,0.14953 0.19078,0.14953 0.38542,0.30208c0.87917,1.04274 0.94792,2.20103 0.94792,3.53125c0.935,0 1.87,0 2.83333,0c-0.02062,-0.36094 -0.02062,-0.36094 -0.04167,-0.72917c-0.00568,-0.99355 0.2982,-1.70699 0.70833,-2.60417c-0.11,0 -0.22,0 -0.33333,0c-0.2475,1.0725 -0.2475,1.0725 -0.5,2.16667c-0.22,0 -0.44,0 -0.66667,0c0,-3.685 0,-7.37 0,-11.16667c0.99,0 1.98,0 3,0c0,-0.495 0,-0.99 0,-1.5c-6.49,-0.055 -12.98,-0.11 -19.66667,-0.16667c0,-2.2 0,-4.4 0,-6.66667c6.93,0 13.86,0 21,0c0,-0.11 0,-0.22 0,-0.33333z" fill="#969696"/><path d="M38.83333,110.66667c11.22,0 22.44,0 34,0c0,2.86 0,5.72 0,8.66667c0.11,0 0.22,0 0.33333,0c0.0277,3.33899 -0.0712,6.65874 -0.16667,10c-0.03852,7.26038 -0.0686,14.52081 -0.09375,21.78125c-0.01396,3.92283 -0.02793,7.84566 -0.04232,11.88737c-0.0101,3.02436 -0.02019,6.04871 -0.0306,9.16471c-11.165,0 -22.33,0 -33.83333,0c0,-0.88 0,-1.76 0,-2.66667c-0.275,0 -0.55,0 -0.83333,0c-0.02767,-3.33617 0.05905,-6.6657 0.16667,-10c0.22,0 0.44,0 0.66667,0c0,-6.105 0,-12.21 0,-18.5c-0.275,0 -0.55,0 -0.83333,0c-0.00451,-0.61458 -0.00774,-1.22916 -0.01042,-1.84375c-0.00193,-0.34225 -0.00387,-0.68449 -0.00586,-1.03711c0.01628,-0.95247 0.01628,-0.95247 0.18294,-2.11914c0.01153,-0.82979 0.0141,-1.65972 0.01042,-2.48958c-0.0015,-0.43807 -0.00301,-0.87613 -0.00456,-1.32747c-0.00194,-0.33537 -0.00387,-0.67074 -0.00586,-1.01628c0.22,0 0.44,0 0.66667,0c-0.055,-0.99 -0.11,-1.98 -0.16667,-3c-0.02304,-5.83339 -0.0071,-11.66654 0,-17.5z" fill="#fcfcfc"/><path d="M83.16667,28.5c17.105,0 34.21,0 51.83333,0c0,1.76 0,3.52 0,5.33333c0.22,0 0.44,0 0.66667,0c0,5.005 0,10.01 0,15.16667c-0.22,0 -0.44,0 -0.66667,0c0,1.76 0,3.52 0,5.33333c-6.875,0 -13.75,0 -20.83333,0c0,0.22 0,0.44 0,0.66667c-3.39299,0.0218 -6.7761,-0.03715 -10.16667,-0.16667c0,-0.165 0,-0.33 0,-0.5c-6.875,0 -13.75,0 -20.83333,0c0,-8.525 0,-17.05 0,-25.83333z" fill="#fbfbfb"/><path d="M136,28.5c17.105,0 34.21,0 51.83333,0c0,8.525 0,17.05 0,25.83333c-13.805,0.055 -27.61,0.11 -41.83333,0.16667c0,0.165 0,0.33 0,0.5c-3.33801,0.02234 -6.6641,-0.04481 -10,-0.16667c-0.15071,-4.48423 -0.18899,-8.96124 -0.1875,-13.44792c-0.00043,-1.29314 -0.00086,-2.58629 -0.0013,-3.91862c0.01821,-2.98954 0.09542,-5.97866 0.1888,-8.9668z" fill="#fbfbfb"/><path d="M259.83333,127.33333c5.335,0 10.67,0 16.16667,0c0.19213,12.59402 0.18299,25.18593 0.17708,37.78125c-0.0015,4.16002 -0.00301,8.32004 -0.00456,12.60612c-0.0029,4.75825 -0.0029,4.75825 -0.00586,9.61263c-10.395,0 -20.79,0 -31.5,0c0,-4.51 0,-9.02 0,-13.66667c5.005,0 10.01,0 15.16667,0c0,-15.29 0,-30.58 0,-46.33333z" fill="#fbfbfb"/><path d="M21,142.83333c5.335,0 10.67,0 16.16667,0c0,5.5 0,11 0,16.66667c0.275,0 0.55,0 0.83333,0c0,1.32 0,2.64 0,4c-0.11,0 -0.22,0 -0.33333,0c0,0.275 0,0.55 0,0.83333c-0.165,0 -0.33,0 -0.5,0c0,0.11 0,0.22 0,0.33333c0.165,0 0.33,0 0.5,0c0,1.54 0,3.08 0,4.66667c-0.165,0 -0.33,0 -0.5,0c0,1.485 0,2.97 0,4.5c0.62498,-0.02728 1.24996,-0.05457 1.89388,-0.08268c2.77006,-0.08927 5.5326,-0.10002 8.30404,-0.0944c2.54203,0.00516 2.54203,0.00516 5.13542,0.01042c0,4.51 0,9.02 0,13.66667c-10.395,0 -20.79,0 -31.5,0c0,-14.685 0,-29.37 0,-44.5z" fill="#fafafa"/><path d="M37.33333,48.33333c0.55,0 1.1,0 1.66667,0c0,1.98 0,3.96 0,6c11.495,0 22.99,0 34.83333,0c0,7.645 0,15.29 0,23.16667c-0.33,0 -0.66,0 -1,0c0,-7.04 0,-14.08 0,-21.33333c-11.165,0 -22.33,0 -33.83333,0c0,2.09 0,4.18 0,6.33333c-0.02528,3.43752 -0.05325,6.87502 -0.08333,10.3125c-0.01547,1.78363 -0.03094,3.56727 -0.04687,5.40495c-0.01203,1.35824 -0.02406,2.71648 -0.03646,4.11589c3.06539,-0.01805 3.06539,-0.01805 6.19271,-0.03646c2.65891,-0.01547 5.31781,-0.03094 8.05729,-0.04687c3.96773,-0.0232 3.96773,-0.0232 8.01563,-0.04687c12.15116,-0.0642 12.15116,-0.0642 12.73438,0.13021c0,7.425 0,14.85 0,22.5c-0.33,0 -0.66,0 -1,0c0,-7.095 0,-14.19 0,-21.5c-11.22,0 -22.44,0 -34,0c0,2.145 0,4.29 0,6.5c-0.22,0 -0.44,0 -0.66667,0c0,4.4 0,8.8 0,13.33333c0.275,0.055 0.55,0.11 0.83333,0.16667c0,2.09 0,4.18 0,6.33333c2.03973,-0.01396 4.07945,-0.02793 6.18099,-0.04232c2.6559,-0.01697 5.3118,-0.03394 8.04818,-0.05143c2.64129,-0.0174 5.28258,-0.03481 8.00391,-0.05273c4.20035,-0.01222 8.4017,0.023 12.60026,0.14648c0,3.19 0,6.38 0,9.66667c-0.165,0 -0.33,0 -0.5,0c0.02095,0.47534 0.02095,0.47534 0.04232,0.96029c0.11776,3.02455 0.10378,6.01661 -0.04232,9.03971c0.165,0 0.33,0 0.5,0c0,14.19 0,28.38 0,43c-10.615,0 -21.23,0 -32.16667,0c0,0.11 0,0.22 0,0.33333c34.65,0 69.3,0 105,0c0,0.165 0,0.33 0,0.5c-34.65,0 -69.3,0 -105,0c0,0.22 0,0.44 0,0.66667c-1.485,0 -2.97,0 -4.5,0c0,-1.485 0,-2.97 0,-4.5c0.165,0 0.33,0 0.5,0c0,-1.54 0,-3.08 0,-4.66667c-0.165,0 -0.33,0 -0.5,0c0,-0.11 0,-0.22 0,-0.33333c0.165,0 0.33,0 0.5,0c0,-0.275 0,-0.55 0,-0.83333c0.11,0 0.22,0 0.33333,0c0,-1.32 0,-2.64 0,-4c-0.275,0 -0.55,0 -0.83333,0c0,-5.5 0,-11 0,-16.66667c-5.335,0 -10.67,0 -16.16667,0c0,4.18 0,8.36 0,12.66667c-0.55,0 -1.1,0 -1.66667,0c0,-11.605 0,-23.21 0,-35.16667c5.885,0 11.77,0 17.83333,0c-0.00193,-5.18354 -0.00387,-10.36707 -0.00586,-15.70768c-0.0015,-6.66553 -0.00301,-13.33106 -0.00456,-20.19857c-0.00193,-6.6651 -0.00387,-13.3302 -0.00586,-20.19727c0.01628,-15.72982 0.01628,-15.72982 0.18294,-15.89648zM38.83333,110.66667c-0.00344,2.82563 -0.00688,5.65125 -0.01042,8.5625c-0.00193,1.58941 -0.00387,3.17883 -0.00586,4.81641c0.00938,2.37446 0.05123,4.75027 0.18294,7.12109c-0.22,0 -0.44,0 -0.66667,0c0.00193,0.34934 0.00387,0.69867 0.00586,1.05859c0.0015,0.45504 0.00301,0.91008 0.00456,1.37891c0.00193,0.45246 0.00387,0.90492 0.00586,1.37109c-0.01628,1.19141 -0.01628,1.19141 -0.18294,2.19141c-0.01147,0.65963 -0.01412,1.31944 -0.01042,1.97917c0.0015,0.34676 0.00301,0.69352 0.00456,1.05078c0.00194,0.26512 0.00387,0.53023 0.00586,0.80338c0.275,0 0.55,0 0.83333,0c0,6.105 0,12.21 0,18.5c-0.22,0 -0.44,0 -0.66667,0c-0.10762,3.3343 -0.19434,6.66383 -0.16667,10c0.275,0 0.55,0 0.83333,0c0,0.88 0,1.76 0,2.66667c11.165,0 22.33,0 33.83333,0c0.01515,-4.53653 0.01515,-4.53653 0.0306,-9.16471c0.01396,-3.92283 0.02793,-7.84566 0.04232,-11.88737c0.01354,-3.90779 0.02707,-7.81559 0.04102,-11.8418c0.0279,-5.25803 0.06923,-10.51683 0.2194,-15.77279c0.00591,-1.38962 0.01152,-2.77739 0,-4.16667c-0.11,0 -0.22,0 -0.33333,0c0,-2.86 0,-5.72 0,-8.66667c-11.22,0 -22.44,0 -34,0z" fill="#565656"/><path d="M257.83333,26.83333c0.715,0 1.43,0 2.16667,0c0.00852,22.41337 -0.0239,44.82629 -0.08333,67.23958c-0.01547,5.91572 -0.03094,11.83145 -0.04687,17.92643c-0.01203,4.45522 -0.02406,8.91043 -0.03646,13.50065c5.94,0 11.88,0 18,0c0,5.17 0,10.34 0,15.66667c-0.55,0 -1.1,0 -1.66667,0c0,-4.62 0,-9.24 0,-14c-5.555,0 -11.11,0 -16.83333,0c0,15.18 0,30.36 0,46c-54.14199,0.02468 -54.14199,0.02468 -75.33333,-0.16667c0,-0.11 0,-0.22 0,-0.33333c24.695,0 49.39,0 74.83333,0c0,-15.015 0,-30.03 0,-45.5c-0.22,0 -0.44,0 -0.66667,0c0,-23.485 0,-46.97 0,-71.16667c-0.88,0 -1.76,0 -2.66667,0c0,-0.55 0,-1.1 0,-1.66667c-2.585,0 -5.17,0 -7.83333,0c0,-6.38 0,-12.76 0,-19.33333c0.99,0 1.98,0 3,0c0,0.22 0,0.44 0,0.66667c0.55,0 1.1,0 1.66667,0c0,3.63 0,7.26 0,11c-0.22,0 -0.44,0 -0.66667,0c-0.06875,-0.25437 -0.1375,-0.50875 -0.20833,-0.77083c-0.21735,-0.7252 -0.47403,-1.30217 -0.95833,-1.89583c-0.11,0 -0.22,0 -0.33333,0c0.12719,0.09969 0.25437,0.19938 0.38542,0.30208c0.87917,1.04274 0.94792,2.20103 0.94792,3.53125c0.935,0 1.87,0 2.83333,0c-0.01375,-0.24063 -0.0275,-0.48125 -0.04167,-0.72917c-0.00568,-0.99355 0.2982,-1.70699 0.70833,-2.60417c-0.11,0 -0.22,0 -0.33333,0c-0.2475,1.0725 -0.2475,1.0725 -0.5,2.16667c-0.22,0 -0.44,0 -0.66667,0c0,-3.685 0,-7.37 0,-11.16667c0.99,0 1.98,0 3,0c0,-0.495 0,-0.99 0,-1.5c-6.49,-0.055 -12.98,-0.11 -19.66667,-0.16667c0,-2.2 0,-4.4 0,-6.66667c6.93,0 13.86,0 21,0c0,-0.11 0,-0.22 0,-0.33333z" fill="#525252"/><path d="M158.11003,101.81706c3.66319,0.0029 3.66319,0.0029 7.40039,0.00586c3.66384,0.00225 3.66384,0.00225 7.40169,0.00456c2.84851,0.0029 2.84851,0.0029 5.75456,0.00586c0,5.83 0,11.66 0,17.66667c-8.745,0 -17.49,0 -26.5,0c-0.01627,-13.6556 -0.01627,-13.6556 0,-17.5c1.40153,-1.40153 3.96131,-0.17736 5.94336,-0.18294z" fill="#f9f9f8"/><path d="M212.91667,28.47917c0.68578,-0.00043 1.37156,-0.00086 2.07813,-0.0013c1.83604,0.02027 3.67114,0.10147 5.50521,0.1888c0,8.47 0,16.94 0,25.66667c-3.41,0 -6.82,0 -10.33333,0c-0.22,-0.605 -0.44,-1.21 -0.66667,-1.83333c-0.67683,-0.99961 -1.5399,-1.87056 -2.66667,-2.33333c-0.495,-0.055 -0.99,-0.11 -1.5,-0.16667c0,-7.04 0,-14.08 0,-21.33333c2.54084,-0.12099 5.04269,-0.18909 7.58333,-0.1875z" fill="#fafafa"/><path d="M19.66667,120.66667c5.775,0 11.55,0 17.5,0c0.055,3.41 0.11,6.82 0.16667,10.33333c0.33,0.0825 0.33,0.0825 0.66667,0.16667c0.00901,0.64581 0.01547,1.29165 0.02083,1.9375c0.00387,0.35965 0.00773,0.7193 0.01172,1.08984c-0.03255,0.97266 -0.03255,0.97266 -0.36589,1.97266c0,1.595 0,3.19 0,4.83333c-5.94,0 -11.88,0 -18,0c0,-6.71 0,-13.42 0,-20.33333z" fill="#fafafa"/><path d="M192.54688,134.14453c5.95203,0.00043 11.90406,0.00086 18.03646,0.0013c5.95203,-0.00043 11.90406,-0.00086 18.03646,-0.0013c14.04688,0.02213 14.04688,0.02213 14.21354,0.1888c0,1.76 0,3.52 0,5.33333c-21.285,0 -42.57,0 -64.5,0c0,-5.49974 0,-5.49974 14.21354,-5.52213z" fill="#f9faf9"/><path d="M89.16667,134.16667c20.9,0 41.8,0 63.33333,0c0,1.815 0,3.63 0,5.5c-20.9,0 -41.8,0 -63.33333,0c0,-1.815 0,-3.63 0,-5.5z" fill="#f9faf9"/><path d="M89.16667,74.83333c20.9,0 41.8,0 63.33333,0c0,1.76 0,3.52 0,5.33333c-3.30027,3.30027 -9.33337,0.17745 -14.00065,0.18294c-8.79108,-0.0029 -8.79108,-0.0029 -17.75976,-0.00586c-5.86115,-0.0015 -11.72231,-0.00301 -17.76107,-0.00456c-4.55791,-0.00194 -9.11582,-0.00387 -13.81185,-0.00586c0,-1.815 0,-3.63 0,-5.5z" fill="#fbfbfb"/><path d="M181,74.83333c10.2743,-0.00447 20.54861,-0.00772 30.82292,-0.01042c5.7215,-0.00193 11.44301,-0.00387 17.33789,-0.00586c13.50586,0.01628 13.50586,0.01628 13.67253,0.18294c0,1.76 0,3.52 0,5.33333c-20.405,0 -40.81,0 -61.83333,0c0,-1.815 0,-3.63 0,-5.5z" fill="#fbfbfb"/><path d="M19.33333,155.5c0.55,0 1.1,0 1.66667,0c0,10.505 0,21.01 0,31.83333c10.395,0 20.79,0 31.5,0c0,-4.51 0,-9.02 0,-13.66667c-3.575,0 -7.15,0 -10.83333,0c0,-0.165 0,-0.33 0,-0.5c34.65,0 69.3,0 105,0c0,0.11 0,0.22 0,0.33333c-40.59,0.0825 -40.59,0.0825 -82,0.16667c-0.055,4.18 -0.11,8.36 -0.16667,12.66667c-3.355,0 -6.71,0 -10.16667,0c0,0.935 0,1.87 0,2.83333c-7.20853,0.01146 -14.41661,-0.0318 -21.625,-0.07292c-2.46726,-0.01354 -4.93453,-0.02707 -7.47656,-0.04102c-5.73177,-0.05273 -5.73177,-0.05273 -5.89844,-0.2194c-0.01238,-5.55901 -0.01389,-11.11805 -0.01042,-16.67708c0.0015,-3.09225 0.00301,-6.18449 0.00456,-9.37044c0.00194,-2.40431 0.00387,-4.80863 0.00586,-7.28581z" fill="#b4b4b4"/><path d="M37.16667,89.66667c0.22,0 0.44,0 0.66667,0c0,4.51 0,9.02 0,13.66667c-0.165,0 -0.33,0 -0.5,0c0.055,2.365 0.11,4.73 0.16667,7.16667c11.66,0 23.32,0 35.33333,0c0,0.055 0,0.11 0,0.16667c-11.22,0 -22.44,0 -34,0c0.055,6.765 0.11,13.53 0.16667,20.5c-0.22,0 -0.44,0 -0.66667,0c0,1.595 0,3.19 0,4.83333c0.11,0.055 0.22,0.11 0.33333,0.16667c-0.11,0 -0.22,0 -0.33333,0c-0.055,1.595 -0.11,3.19 -0.16667,4.83333c0.275,0 0.55,0 0.83333,0c0,6.105 0,12.21 0,18.5c-0.22,0 -0.44,0 -0.66667,0c0.00193,0.37275 0.00387,0.74551 0.00586,1.12956c0.00884,2.96187 -0.01985,5.91231 -0.17253,8.87044c0.275,0 0.55,0 0.83333,0c0,0.88 0,1.76 0,2.66667c11.165,0 22.33,0 33.83333,0c0,0.055 0,0.11 0,0.16667c-10.285,0 -20.57,0 -31.16667,0c0,0.11 0,0.22 0,0.33333c34.65,0 69.3,0 105,0c0,0.165 0,0.33 0,0.5c-34.65,0 -69.3,0 -105,0c0,0.22 0,0.44 0,0.66667c-1.485,0 -2.97,0 -4.5,0c0,-1.485 0,-2.97 0,-4.5c0.165,0 0.33,0 0.5,0c0,-1.54 0,-3.08 0,-4.66667c-0.165,0 -0.33,0 -0.5,0c0,-0.11 0,-0.22 0,-0.33333c0.165,0 0.33,0 0.5,0c0,-0.275 0,-0.55 0,-0.83333c0.11,0 0.22,0 0.33333,0c0,-1.32 0,-2.64 0,-4c-0.275,0 -0.55,0 -0.83333,0c0,-5.5 0,-11 0,-16.66667c-5.335,0 -10.67,0 -16.16667,0c0,4.18 0,8.36 0,12.66667c-0.55,0 -1.1,0 -1.66667,0c0,-11.605 0,-23.21 0,-35.16667c5.885,0 11.77,0 17.83333,0c0,-10.12 0,-20.24 0,-30.66667zM19.66667,120.66667c0,6.71 0,13.42 0,20.33333c5.94,0 11.88,0 18,0c0,-1.595 0,-3.19 0,-4.83333c0.11,-0.33 0.22,-0.66 0.33333,-1c0.023,-0.68715 0.02823,-1.375 0.02083,-2.0625c-0.00301,-0.36223 -0.00602,-0.72445 -0.00912,-1.09766c-0.00387,-0.27715 -0.00773,-0.5543 -0.01172,-0.83984c-0.33,-0.0825 -0.33,-0.0825 -0.66667,-0.16667c-0.055,-3.41 -0.11,-6.82 -0.16667,-10.33333c-5.775,0 -11.55,0 -17.5,0z" fill="#6d6e6d"/><path d="M231.67708,86.97786c0.49156,0.00043 0.98313,0.00086 1.48958,0.0013c0.49156,-0.00043 0.98313,-0.00086 1.48958,-0.0013c1.17708,0.02213 1.17708,0.02213 1.34375,0.1888c0.01238,6.72569 0.01389,13.45139 0.01042,20.17708c-0.0015,3.74193 -0.00301,7.48387 -0.00456,11.33919c-0.00194,2.90963 -0.00387,5.81926 -0.00586,8.81706c-1.87,0 -3.74,0 -5.66667,0c-0.00446,-6.71875 -0.00772,-13.4375 -0.01042,-20.15625c-0.00193,-3.7415 -0.00387,-7.48301 -0.00586,-11.33789c0.01658,-9.00273 0.01658,-9.00273 1.36003,-9.02799z" fill="#fafafa"/><path d="M110.17708,86.97786c0.49156,0.00043 0.98312,0.00086 1.48958,0.0013c0.49156,-0.00043 0.98313,-0.00086 1.48958,-0.0013c1.17708,0.02213 1.17708,0.02213 1.34375,0.1888c0.01238,6.72569 0.01389,13.45139 0.01042,20.17708c-0.0015,3.74193 -0.00301,7.48387 -0.00456,11.33919c-0.00194,2.90963 -0.00387,5.81926 -0.00586,8.81706c-1.87,0 -3.74,0 -5.66667,0c-0.00447,-6.71875 -0.00772,-13.4375 -0.01042,-20.15625c-0.00193,-3.7415 -0.00387,-7.48301 -0.00586,-11.33789c0.01658,-9.00273 0.01658,-9.00273 1.36003,-9.02799z" fill="#f9f9f9"/><path d="M246.10417,26.90625c2.19871,0.01697 4.39742,0.03395 6.66276,0.05143c1.67191,0.01396 3.34383,0.02793 5.06641,0.04232c0,0.055 0,0.11 0,0.16667c-6.93,0 -13.86,0 -21,0c0,2.2 0,4.4 0,6.66667c1.75248,-0.0029 1.75248,-0.0029 3.54037,-0.00586c1.51981,-0.0015 3.03961,-0.00301 4.60547,-0.00456c1.51207,-0.00193 3.02414,-0.00387 4.58203,-0.00586c2.31372,0.00956 4.62863,0.0546 6.9388,0.18294c0,0.495 0,0.99 0,1.5c-0.99,0 -1.98,0 -3,0c0,3.685 0,7.37 0,11.16667c0.22,0 0.44,0 0.66667,0c-0.01031,-0.14094 -0.02062,-0.28188 -0.03125,-0.42708c0.03657,-0.67038 0.24265,-1.13833 0.53125,-1.73958c0.11,0 0.22,0 0.33333,0c-0.07906,0.24063 -0.15813,0.48125 -0.23958,0.72917c-0.26401,0.87173 -0.36229,1.69703 -0.42708,2.60417c-0.935,0 -1.87,0 -2.83333,0c-0.11393,-0.62392 -0.22787,-1.24783 -0.3418,-1.87175c-0.14737,-0.58522 -0.33241,-0.9624 -0.6582,-1.46159c0,-0.11 0,-0.22 0,-0.33333c-0.165,-0.055 -0.33,-0.11 -0.5,-0.16667c0.165,-0.055 0.33,-0.11 0.5,-0.16667c0.71254,0.97027 1.12167,1.59578 1.16667,2.83333c0.22,0 0.44,0 0.66667,0c0,-3.63 0,-7.26 0,-11c-0.55,0 -1.1,0 -1.66667,0c0,-0.22 0,-0.44 0,-0.66667c-0.99,0 -1.98,0 -3,0c0,6.38 0,12.76 0,19.33333c2.585,0 5.17,0 7.83333,0c0,0.55 0,1.1 0,1.66667c0.88,0 1.76,0 2.66667,0c0,0.055 0,0.11 0,0.16667c-0.935,0 -1.87,0 -2.83333,0c0,-0.11 0,-0.22 0,-0.33333c-1.54,0 -3.08,0 -4.66667,0c0,0.11 0,0.22 0,0.33333c-2.255,0 -4.51,0 -6.83333,0c0,-0.605 0,-1.21 0,-1.83333c0.935,0 1.87,0 2.83333,0c-0.01203,-0.73305 -0.02406,-1.46609 -0.03646,-2.22135c-0.08603,-5.48229 -0.15685,-10.96232 -0.13021,-16.44531c-2.31,-0.0825 -2.31,-0.0825 -4.66667,-0.16667c0,3.74 0,7.48 0,11.33333c0.275,0 0.55,0 0.83333,0c0,0.33 0,0.66 0,1c-0.935,0 -1.87,0 -2.83333,0c-0.04125,-0.36437 -0.0825,-0.72875 -0.125,-1.10417c-0.12662,-0.90839 -0.2759,-1.51025 -0.875,-2.22917c0,-0.11 0,-0.22 0,-0.33333c-0.12031,-0.04469 -0.24062,-0.08937 -0.36458,-0.13542c-0.46875,-0.19792 -0.46875,-0.19792 -0.875,-0.45833c-0.48152,-0.27012 -0.88461,-0.3279 -1.42708,-0.40625c0.00193,0.21957 0.00387,0.43914 0.00586,0.66537c0.01628,3.50197 -0.08036,7.00077 -0.17253,10.5013c0.935,0 1.87,0 2.83333,0c0,0.605 0,1.21 0,1.83333c-4.125,0 -8.25,0 -12.5,0c0,-0.605 0,-1.21 0,-1.83333c2.86,0 5.72,0 8.66667,0c0,-8.47 0,-16.94 0,-25.66667c-4.95,-0.0825 -4.95,-0.0825 -10,-0.16667c0,-0.495 0,-0.99 0,-1.5c7.03744,-0.18362 14.06484,-0.15002 21.10417,-0.09375z" fill="#181818"/><path d="M122.83333,87c1.815,0 3.63,0 5.5,0c0,13.365 0,26.73 0,40.5c-1.815,0 -3.63,0 -5.5,0c0,-13.365 0,-26.73 0,-40.5z" fill="#f8f9f8"/><path d="M202.5,87c1.76,0 3.52,0 5.33333,0c2.12314,2.12314 0.17741,6.00329 0.18294,9.00586c-0.00194,3.7415 -0.00387,7.48301 -0.00586,11.33789c-0.0015,3.74193 -0.00301,7.48387 -0.00456,11.33919c-0.00194,2.90963 -0.00387,5.81926 -0.00586,8.81706c-1.815,0 -3.63,0 -5.5,0c0,-13.365 0,-26.73 0,-40.5z" fill="#f7f8f7"/><path d="M188.66667,87c1.76,0 3.52,0 5.33333,0c0,13.365 0,26.73 0,40.5c-1.815,0 -3.63,0 -5.5,0c-0.00446,-6.71875 -0.00772,-13.4375 -0.01042,-20.15625c-0.00193,-3.7415 -0.00387,-7.48301 -0.00586,-11.33789c0.01628,-8.83919 0.01628,-8.83919 0.18294,-9.00586z" fill="#f8f9f8"/><path d="M136.83333,87c1.76,0 3.52,0 5.33333,0c2.12314,2.12314 0.17741,6.00329 0.18294,9.00586c-0.00194,3.7415 -0.00387,7.48301 -0.00586,11.33789c-0.0015,3.74193 -0.00301,7.48387 -0.00456,11.33919c-0.00194,2.90963 -0.00387,5.81926 -0.00586,8.81706c-1.815,0 -3.63,0 -5.5,0c0,-13.365 0,-26.73 0,-40.5z" fill="#fafafa"/><path d="M216.5,87c1.76,0 3.52,0 5.33333,0c0,13.365 0,26.73 0,40.5c-1.76,0 -3.52,0 -5.33333,0c0,-13.365 0,-26.73 0,-40.5z" fill="#eff0f0"/><path d="M95,87c1.76,0 3.52,0 5.33333,0c0,13.365 0,26.73 0,40.5c-1.76,0 -3.52,0 -5.33333,0c0,-13.365 0,-26.73 0,-40.5z" fill="#f0f0f0"/><path d="M51.13021,26.8112c5.92453,0.00043 11.84906,0.00086 17.95313,0.0013c8.83523,-0.00064 8.83523,-0.00064 17.84896,-0.0013c9.68943,0.01378 19.37901,0.06919 29.06771,0.1888c0,0.495 0,0.99 0,1.5c-2.12499,0.02825 -4.25,0.05592 -6.375,0.08333c-1.77504,0.0232 -1.77504,0.0232 -3.58594,0.04688c-5.52865,0.05696 -11.05233,0.02635 -16.58073,-0.04687c-2.07625,-0.0275 -4.1525,-0.055 -6.29167,-0.08333c0.00387,1.86098 0.00774,3.72195 0.01172,5.63932c0.00301,2.39465 0.00602,4.7893 0.00912,7.25651c0.00387,2.39379 0.00774,4.78758 0.01172,7.25391c-0.03255,5.68359 -0.03255,5.68359 -0.36588,6.01693c6.875,0 13.75,0 20.83333,0c0,0.33 0,0.66 0,1c-6.985,0 -13.97,0 -21.16667,0c0,-8.965 0,-17.93 0,-27.16667c-0.11,0.055 -0.22,0.11 -0.33333,0.16667c-7.22916,0.01237 -14.45833,0.0139 -21.6875,0.01042c-4.01887,-0.0015 -8.03773,-0.00301 -12.17838,-0.00456c-3.12426,-0.00193 -6.24852,-0.00387 -9.46745,-0.00586c0,6.38 0,12.76 0,19.33333c-0.055,0 -0.11,0 -0.16667,0c0,-4.345 0,-8.69 0,-13.16667c-0.11,0 -0.22,0 -0.33333,0c0,4.4 0,8.8 0,13.33333c0.165,0.055 0.33,0.11 0.5,0.16667c-0.55,0.055 -1.1,0.11 -1.66667,0.16667c-0.00446,-3.57986 -0.00772,-7.15972 -0.01042,-10.73958c-0.00193,-1.99354 -0.00387,-3.98707 -0.00586,-6.04102c0.01685,-4.8858 0.01685,-4.8858 13.97982,-4.9082z" fill="#8c8c8c"/><path d="M276.16667,141.16667c0.55,0 1.1,0 1.66667,0c0,15.785 0,31.57 0,47.83333c-28.48214,0.17857 -28.48214,0.17857 -34.83333,0.16667c0,-0.935 0,-1.87 0,-2.83333c-0.77,0 -1.54,0 -2.33333,0c0,-4.18 0,-8.36 0,-12.66667c1.32,0 2.64,0 4,0c0,4.51 0,9.02 0,13.66667c10.395,0 20.79,0 31.5,0c0,-15.235 0,-30.47 0,-46.16667z" fill="#606160"/><path d="M124.82357,26.81706c5.49624,0.0029 5.49624,0.0029 11.10351,0.00586c3.66459,0.0015 7.32918,0.00301 11.10482,0.00456c2.84947,0.00193 5.69894,0.00387 8.63477,0.00586c0,0.22 0,0.44 0,0.66667c4.455,0 8.91,0 13.5,0c0,0.055 0,0.11 0,0.16667c-4.455,0 -8.91,0 -13.5,0c0,0.33 0,0.66 0,1c-6.55674,0.01295 -13.11054,-0.08083 -19.66667,-0.16667c0,8.69 0,17.38 0,26.33333c1.705,0 3.41,0 5.16667,0c0.91337,0.02132 1.82669,0.047 2.73958,0.08333c0.40197,0.01547 0.80395,0.03094 1.2181,0.04688c0.28897,0.01203 0.57793,0.02406 0.87565,0.03646c0,0.165 0,0.33 0,0.5c-1.925,0 -3.85,0 -5.83333,0c0,-0.11 0,-0.22 0,-0.33333c-1.375,0 -2.75,0 -4.16667,0c0,0.33 0,0.66 0,1c-7.15,0 -14.3,0 -21.66667,0c-0.055,-0.22 -0.11,-0.44 -0.16667,-0.66667c-1.98,0 -3.96,0 -6,0c0,-0.11 0,-0.22 0,-0.33333c-1.375,0 -2.75,0 -4.16667,0c0,0.33 0,0.66 0,1c-7.205,0 -14.41,0 -21.83333,0c0,-9.13 0,-18.26 0,-27.66667c-3.96,0 -7.92,0 -12,0c0,-0.055 0,-0.11 0,-0.16667c4.125,0 8.25,0 12.5,0c-0.055,9.02 -0.11,18.04 -0.16667,27.33333c6.985,0 13.97,0 21.16667,0c0,-0.33 0,-0.66 0,-1c-6.875,0 -13.75,0 -20.83333,0c0,-8.69 0,-17.38 0,-26.33333c0.055,0 0.11,0 0.16667,0c0,8.58 0,17.16 0,26c6.93,0 13.86,0 21,0c0,0.165 0,0.33 0,0.5c0.31496,-0.00194 0.62992,-0.00387 0.95443,-0.00586c3.07471,-0.01065 6.14003,0.04972 9.21224,0.17253c0,-0.22 0,-0.44 0,-0.66667c6.875,0 13.75,0 20.83333,0c0,-1.76 0,-3.52 0,-5.33333c0.22,0 0.44,0 0.66667,0c0,-5.005 0,-10.01 0,-15.16667c-0.22,0 -0.44,0 -0.66667,0c0,-1.76 0,-3.52 0,-5.33333c-1.36608,0.01805 -1.36608,0.01805 -2.75977,0.03646c-1.20334,0.01547 -2.40668,0.03094 -3.64648,0.04688c-1.18916,0.01547 -2.37832,0.03094 -3.60352,0.04688c-2.99714,0.03131 -5.99298,0.04323 -8.99023,0.03646c0,-4.60619 0.67755,-1.83429 8.82357,-1.84961z" fill="#7a7a7a"/><path d="M241.83333,35.5c3.375,0 3.375,0 4.66667,0.16667c0.18814,6.22224 0.18309,12.44203 0.16667,18.66667c-0.935,0 -1.87,0 -2.83333,0c0,0.55 0,1.1 0,1.66667c-1.65,0 -3.3,0 -5,0c0,-0.55 0,-1.1 0,-1.66667c-0.935,0 -1.87,0 -2.83333,0c-0.03192,-7.54255 -0.03192,-7.54255 0.16667,-11.16667c1.12161,-0.0653 1.79967,0.31508 2.66667,1c0.96629,1.14637 1.01882,2.23676 1,3.66667c0.935,0 1.87,0 2.83333,0c0,-0.33 0,-0.66 0,-1c-0.275,0 -0.55,0 -0.83333,0c0,-3.74 0,-7.48 0,-11.33333z" fill="#f4f5f4"/><path d="M152.5,102.16667c2.75,0 5.5,0 8.33333,0c0,5.665 0,11.33 0,17.16667c-2.75,0 -5.5,0 -8.33333,0c0,-5.665 0,-11.33 0,-17.16667z" fill="#fafafa"/><path d="M206.13607,26.81706c2.24104,0.00193 4.48207,0.00387 6.79102,0.00586c2.24147,0.0015 4.48293,0.00301 6.79232,0.00456c2.6139,0.0029 2.6139,0.0029 5.2806,0.00586c0,0.605 0,1.21 0,1.83333c-1.155,0 -2.31,0 -3.5,0c0,9.075 0,18.15 0,27.5c-3.85,0 -7.7,0 -11.66667,0c-0.055,-0.935 -0.11,-1.87 -0.16667,-2.83333c-0.65434,-1.2931 -1.50269,-2.20825 -2.85417,-2.80208c-0.67086,-0.21734 -0.67086,-0.21734 -1.47917,-0.36458c0,1.98 0,3.96 0,6c-3.85,0 -7.7,0 -11.66667,0c0,-0.605 0,-1.21 0,-1.83333c3.465,0 6.93,0 10.5,0c0,-8.47 0,-16.94 0,-25.66667c-1.155,0 -2.31,0 -3.5,0c0,-3.49852 0.04642,-1.83296 5.4694,-1.84961zM205.33333,28.66667c0,7.04 0,14.08 0,21.33333c0.495,0.055 0.99,0.11 1.5,0.16667c1.11946,0.48577 1.95325,1.36811 2.66667,2.33333c0.22,0.605 0.44,1.21 0.66667,1.83333c3.41,0 6.82,0 10.33333,0c0,-8.47 0,-16.94 0,-25.66667c-2.54084,-0.12099 -5.04269,-0.18909 -7.58333,-0.1875c-0.68578,-0.00043 -1.37156,-0.00086 -2.07812,-0.0013c-1.83603,0.02027 -3.67114,0.10147 -5.50521,0.1888z" fill="#171716"/><path d="M170,102.16667c2.75,0 5.5,0 8.33333,0c0,5.61 0,11.22 0,17c-2.75,0 -5.5,0 -8.33333,0c0,-5.61 0,-11.22 0,-17z" fill="#fafbfa"/><path d="M236.83333,27.16667c6.93,0 13.86,0 21,0c0,2.2 0,4.4 0,6.66667c-3.44919,0.57486 -7.60855,0.12633 -11.0625,0.09375c-2.77084,-0.02546 -2.77084,-0.02546 -5.59766,-0.05143c-1.43215,-0.01396 -2.8643,-0.02793 -4.33984,-0.04232c0,-2.2 0,-4.4 0,-6.66667z" fill="#f9f9f8"/><path d="M247.66667,35c0.99,0 1.98,0 3,0c0,0.22 0,0.44 0,0.66667c0.55,0 1.1,0 1.66667,0c0,3.63 0,7.26 0,11c-0.22,0 -0.44,0 -0.66667,0c-0.06875,-0.25437 -0.1375,-0.50875 -0.20833,-0.77083c-0.21735,-0.7252 -0.47403,-1.30217 -0.95833,-1.89583c-0.11,0 -0.22,0 -0.33333,0c0.12719,0.09969 0.25437,0.19938 0.38542,0.30208c0.87917,1.04274 0.94792,2.20103 0.94792,3.53125c0.935,0 1.87,0 2.83333,0c-0.01375,-0.24063 -0.0275,-0.48125 -0.04167,-0.72917c0.00162,-1.13998 0.28673,-2.17117 1.09375,-3c0.14781,-0.08937 0.29563,-0.17875 0.44792,-0.27083c0.18906,-0.12375 0.37813,-0.2475 0.57292,-0.375c0.61539,-0.3023 0.92571,-0.31798 1.59375,-0.29167c0.20395,3.72204 0.17865,7.43981 0.16667,11.16667c-3.465,0 -6.93,0 -10.5,0c0,-6.38 0,-12.76 0,-19.33333z" fill="#f8f8f8"/><path d="M160.16667,157c3.355,0 6.71,0 10.16667,0c0,4.455 0,8.91 0,13.5c-3.355,0 -6.71,0 -10.16667,0c0,-4.455 0,-8.91 0,-13.5z" fill="#f9faf9"/><path d="M258.16667,125.66667c6.49,0 12.98,0 19.66667,0c0,5.115 0,10.23 0,15.5c-0.55,0 -1.1,0 -1.66667,0c0,-4.62 0,-9.24 0,-14c-5.555,0 -11.11,0 -16.83333,0c0,15.18 0,30.36 0,46c-54.14199,0.02468 -54.14199,0.02468 -75.33333,-0.16667c0,-0.11 0,-0.22 0,-0.33333c24.695,0 49.39,0 74.83333,0c0,-15.015 0,-30.03 0,-45.5c-0.22,0 -0.44,0 -0.66667,0c0,-0.495 0,-0.99 0,-1.5z" fill="#6b6b6b"/><path d="M258.33333,58.66667c0.495,0 0.99,0 1.5,0c0,22.055 0,44.11 0,66.83333c5.94,0 11.88,0 18,0c0,0.055 0,0.11 0,0.16667c-6.435,0 -12.87,0 -19.5,0c0,-22.11 0,-44.22 0,-67z" fill="#9e9e9e"/><path d="M158.06771,86.97786c2.42516,0.00043 4.85031,0.00086 7.34896,0.0013c3.63774,-0.00064 3.63774,-0.00064 7.34896,-0.0013c5.73438,0.02213 5.73438,0.02213 5.90104,0.1888c0,1.21 0,2.42 0,3.66667c-4.38541,0.00446 -8.77083,0.00772 -13.15625,0.01042c-3.66319,0.0029 -3.66319,0.0029 -7.40039,0.00586c-5.77669,-0.01628 -5.77669,-0.01628 -5.94336,-0.18294c-0.01663,-0.58314 -0.02161,-1.16662 -0.02083,-1.75c-0.00043,-0.3214 -0.00086,-0.64281 -0.0013,-0.97396c0.07785,-2.72922 1.75657,-0.94876 5.92318,-0.96484z" fill="#fafbfa"/><path d="M37.33333,103.33333c0.55,0 1.1,0 1.66667,0c0,2.09 0,4.18 0,6.33333c2.03973,-0.01396 4.07945,-0.02793 6.18099,-0.04232c2.6559,-0.01697 5.3118,-0.03394 8.04818,-0.05143c3.96193,-0.0261 3.96193,-0.0261 8.00391,-0.05273c4.20035,-0.01222 8.4017,0.023 12.60026,0.14648c0,3.19 0,6.38 0,9.66667c-0.165,0 -0.33,0 -0.5,0c0.01396,0.31689 0.02793,0.63379 0.04232,0.96029c0.11776,3.02455 0.10378,6.01661 -0.04232,9.03971c0.165,0 0.33,0 0.5,0c0,14.19 0,28.38 0,43c-0.33,0 -0.66,0 -1,0c-0.00901,-6.95833 -0.01547,-13.91666 -0.02083,-20.875c-0.00387,-3.87492 -0.00774,-7.74984 -0.01172,-11.74219c0.0213,-6.79533 0.1395,-13.59122 0.36588,-20.38281c-0.11,0 -0.22,0 -0.33333,0c0,-2.915 0,-5.83 0,-8.83333c-11.715,0.055 -23.43,0.11 -35.5,0.16667c0,-2.42 0,-4.84 0,-7.33333z" fill="#454545"/><path d="M155.66667,26.83333c5.96875,-0.0045 11.9375,-0.00773 17.90625,-0.01042c3.32385,-0.00193 6.64769,-0.00387 10.07227,-0.00586c5.67415,0.01043 11.34851,0.06717 17.02148,0.18294c0,0.495 0,0.99 0,1.5c-1.28818,0.02823 -2.57638,0.0559 -3.86458,0.08333c-0.71736,0.01547 -1.43473,0.03094 -2.17383,0.04688c-1.87585,0.03213 -3.75213,0.03646 -5.62825,0.03646c0,6.985 0,13.97 0,21.16667c-0.055,0 -0.11,0 -0.16667,0c-0.055,-7.04 -0.11,-14.08 -0.16667,-21.33333c-0.22,0.055 -0.44,0.11 -0.66667,0.16667c0,8.47 0,16.94 0,25.66667c-0.055,0 -0.11,0 -0.16667,0c0,-8.525 0,-17.05 0,-25.83333c-2.12094,0.0275 -4.24187,0.055 -6.42708,0.08333c-6.44074,0.08351 -12.87176,0.08351 -19.3125,0c-1.20635,-0.01547 -2.41269,-0.03094 -3.6556,-0.04687c-0.91459,-0.01203 -1.82918,-0.02406 -2.77149,-0.03646c0,-0.55 0,-1.1 0,-1.66667z" fill="#818181"/><path d="M40.48438,26.8112c8.95098,0.00273 17.899,0.0513 26.84896,0.1888c0,0.495 0,0.99 0,1.5c-9.50088,0.14279 -18.99805,0.18154 -28.5,0.16667c0,6.38 0,12.76 0,19.33333c-0.055,0 -0.11,0 -0.16667,0c0,-4.345 0,-8.69 0,-13.16667c-0.11,0 -0.22,0 -0.33333,0c0,4.4 0,8.8 0,13.33333c0.165,0.055 0.33,0.11 0.5,0.16667c-0.55,0.055 -1.1,0.11 -1.66667,0.16667c-0.00446,-3.57986 -0.00772,-7.15972 -0.01042,-10.73958c-0.00193,-1.99354 -0.00387,-3.98707 -0.00586,-6.04102c0.01685,-4.8849 0.01685,-4.8849 3.33398,-4.9082z" fill="#282828"/><path d="M70.16667,28.33333c4.125,0 8.25,0 12.5,0c-0.055,9.02 -0.11,18.04 -0.16667,27.33333c6.985,0 13.97,0 21.16667,0c0,-0.33 0,-0.66 0,-1c-6.875,0 -13.75,0 -20.83333,0c0,-8.69 0,-17.38 0,-26.33333c0.055,0 0.11,0 0.16667,0c0,8.58 0,17.16 0,26c6.93,0 13.86,0 21,0c0,0.165 0,0.33 0,0.5c0.31496,-0.00193 0.62992,-0.00387 0.95443,-0.00586c3.07471,-0.01064 6.14004,0.04973 9.21224,0.17253c0,-0.22 0,-0.44 0,-0.66667c6.93,0 13.86,0 21,0c0,-1.705 0,-3.41 0,-5.16667c0.22,0 0.44,0 0.66667,0c0,2.255 0,4.51 0,6.83333c-7.095,0 -14.19,0 -21.5,0c-0.055,-0.165 -0.11,-0.33 -0.16667,-0.5c-1.98,0 -3.96,0 -6,0c0,-0.11 0,-0.22 0,-0.33333c-1.375,0 -2.75,0 -4.16667,0c0,0.33 0,0.66 0,1c-7.205,0 -14.41,0 -21.83333,0c0,-9.13 0,-18.26 0,-27.66667c-3.96,0 -7.92,0 -12,0c0,-0.055 0,-0.11 0,-0.16667z" fill="#171717"/><path d="M276.5,141.33333c0.33,0 0.66,0 1,0c0,15.675 0,31.35 0,47.5c-8.91,0 -17.82,0 -27,0c0,-0.385 0,-0.77 0,-1.16667c8.58,0 17.16,0 26,0c0,-15.29 0,-30.58 0,-46.33333z" fill="#f5f5f5"/><path d="M181,155c0.495,0 0.99,0 1.5,0c0,5.665 0,11.33 0,17.16667c0.385,0 0.77,0 1.16667,0c0,0.55 0,1.1 0,1.66667c-0.99,0 -1.98,0 -3,0c0,-5.775 0,-11.55 0,-17.5c-1.925,0 -3.85,0 -5.83333,0c0,-0.11 0,-0.22 0,-0.33333c-1.375,0 -2.75,0 -4.16667,0c-0.055,4.84 -0.11,9.68 -0.16667,14.66667c-3.52,0 -7.04,0 -10.66667,0c-0.055,-4.73 -0.11,-9.46 -0.16667,-14.33333c-1.87,0 -3.74,0 -5.66667,0c0,-0.11 0,-0.22 0,-0.33333c-1.375,0 -2.75,0 -4.16667,0c0,5.885 0,11.77 0,17.83333c-0.055,0 -0.11,0 -0.16667,0c0,-5.995 0,-11.99 0,-18.16667c5.8125,0 5.8125,0 7.90625,0.08333c0.40197,0.01547 0.80394,0.03094 1.2181,0.04688c0.43345,0.01805 0.43345,0.01805 0.87565,0.03646c0,-0.165 0,-0.33 0,-0.5c1.56879,-0.52293 4.19182,-0.18026 5.78125,-0.17708c0.97002,0.0015 1.94004,0.00301 2.93945,0.00456c1.12825,0.0029 1.12825,0.0029 2.2793,0.00586c0,0.165 0,0.33 0,0.5c0.47534,-0.0029 0.47534,-0.0029 0.96029,-0.00586c3.01742,-0.01041 6.02495,0.04701 9.03971,0.17253c0.055,-0.22 0.11,-0.44 0.16667,-0.66667c0.055,-0.055 0.11,-0.11 0.16667,-0.16667zM160.16667,157c0,4.455 0,8.91 0,13.5c3.355,0 6.71,0 10.16667,0c0,-4.455 0,-8.91 0,-13.5c-3.355,0 -6.71,0 -10.16667,0z" fill="#323232"/><path d="M249.16667,33.8125c0.73563,-0.00043 1.47125,-0.00086 2.22917,-0.0013c1.70876,0.01797 3.39967,0.07505 5.10417,0.1888c0,0.495 0,0.99 0,1.5c-0.99,0 -1.98,0 -3,0c0,3.685 0,7.37 0,11.16667c0.22,0 0.44,0 0.66667,0c-0.01031,-0.14094 -0.02062,-0.28188 -0.03125,-0.42708c0.03657,-0.67038 0.24265,-1.13833 0.53125,-1.73958c0.11,0 0.22,0 0.33333,0c-0.07906,0.24063 -0.15813,0.48125 -0.23958,0.72917c-0.26401,0.87173 -0.36229,1.69703 -0.42708,2.60417c-0.935,0 -1.87,0 -2.83333,0c-0.11393,-0.62392 -0.22787,-1.24783 -0.3418,-1.87175c-0.14737,-0.58522 -0.33241,-0.9624 -0.6582,-1.46159c0,-0.11 0,-0.22 0,-0.33333c-0.165,-0.055 -0.33,-0.11 -0.5,-0.16667c0.165,-0.055 0.33,-0.11 0.5,-0.16667c0.71254,0.97027 1.12167,1.59578 1.16667,2.83333c0.22,0 0.44,0 0.66667,0c0,-3.63 0,-7.26 0,-11c-0.55,0 -1.1,0 -1.66667,0c0,-0.22 0,-0.44 0,-0.66667c-0.99,0 -1.98,0 -3,0c0,6.38 0,12.76 0,19.33333c2.585,0 5.17,0 7.83333,0c0,0.55 0,1.1 0,1.66667c0.88,0 1.76,0 2.66667,0c0,0.055 0,0.11 0,0.16667c-0.935,0 -1.87,0 -2.83333,0c0,-0.11 0,-0.22 0,-0.33333c-1.54,0 -3.08,0 -4.66667,0c0,0.11 0,0.22 0,0.33333c-2.255,0 -4.51,0 -6.83333,0c0,-0.605 0,-1.21 0,-1.83333c0.935,0 1.87,0 2.83333,0c-0.01805,-1.09957 -0.01805,-1.09957 -0.03646,-2.22135c-0.08603,-5.48229 -0.15685,-10.96232 -0.13021,-16.44531c-0.55,0 -1.1,0 -1.66667,0c0,-0.55 0,-1.1 0,-1.66667c0.97235,-0.48617 3.342,-0.18807 4.33333,-0.1875z" fill="#616261"/><path d="M37.16667,89.66667c0.22,0 0.44,0 0.66667,0c0,4.51 0,9.02 0,13.66667c-0.165,0 -0.33,0 -0.5,0c0.055,2.365 0.11,4.73 0.16667,7.16667c11.66,0 23.32,0 35.33333,0c0,0.055 0,0.11 0,0.16667c-11.22,0 -22.44,0 -34,0c0.055,6.765 0.11,13.53 0.16667,20.5c-0.22,0 -0.44,0 -0.66667,0c0,1.595 0,3.19 0,4.83333c0.11,0.055 0.22,0.11 0.33333,0.16667c-0.11,0 -0.22,0 -0.33333,0c-0.055,1.595 -0.11,3.19 -0.16667,4.83333c0.275,0 0.55,0 0.83333,0c0,6.105 0,12.21 0,18.5c-0.055,0 -0.11,0 -0.16667,0c0,-6.05 0,-12.1 0,-18.33333c-6.435,0.055 -12.87,0.11 -19.5,0.16667c0,-6.93 0,-13.86 0,-21c5.885,0 11.77,0 17.83333,0c0,-10.12 0,-20.24 0,-30.66667zM19.66667,120.66667c0,6.71 0,13.42 0,20.33333c5.94,0 11.88,0 18,0c0,-1.595 0,-3.19 0,-4.83333c0.11,-0.33 0.22,-0.66 0.33333,-1c0.023,-0.68715 0.02823,-1.375 0.02083,-2.0625c-0.00301,-0.36223 -0.00602,-0.72445 -0.00912,-1.09766c-0.00387,-0.27715 -0.00773,-0.5543 -0.01172,-0.83984c-0.33,-0.0825 -0.33,-0.0825 -0.66667,-0.16667c-0.055,-3.41 -0.11,-6.82 -0.16667,-10.33333c-5.775,0 -11.55,0 -17.5,0z" fill="#aeaeae"/><path d="M37.33333,48.33333c0.55,0 1.1,0 1.66667,0c0,1.98 0,3.96 0,6c11.495,0 22.99,0 34.83333,0c0,7.645 0,15.29 0,23.16667c-0.33,0 -0.66,0 -1,0c0,-7.04 0,-14.08 0,-21.33333c-11.22,0 -22.44,0 -34,0c0,2.035 0,4.07 0,6.16667c-0.385,0 -0.77,0 -1.16667,0c0,-0.055 0,-0.11 0,-0.16667c0.275,0 0.55,0 0.83333,0c0,-2.145 0,-4.29 0,-6.5c11.495,0 22.99,0 34.83333,0c0,-0.33 0,-0.66 0,-1c-11.495,0 -22.99,0 -34.83333,0c0,-1.98 0,-3.96 0,-6c-0.33,0 -0.66,0 -1,0c0,4.29 0,8.58 0,13c-0.055,0 -0.11,0 -0.16667,0c0,-4.4 0,-8.8 0,-13.33333z" fill="#373737"/><path d="M19.66667,155.66667c0.33,0 0.66,0 1,0c0,10.56 0,21.12 0,32c8.58,0 17.16,0 26,0c0,0.33 0,0.66 0,1c-8.91,0 -17.82,0 -27,0c0,-10.89 0,-21.78 0,-33z" fill="#fafafa"/><path d="M202.56315,26.81706c0.7251,0.00193 1.4502,0.00387 2.19727,0.00586c0.72553,0.0015 1.45105,0.00301 2.19857,0.00456c0.8453,0.0029 0.8453,0.0029 1.70768,0.00586c0,0.55 0,1.1 0,1.66667c-1.155,0 -2.31,0 -3.5,0c0,9.075 0,18.15 0,27.5c-3.795,0 -7.59,0 -11.5,0c0,-0.55 0,-1.1 0,-1.66667c3.465,0 6.93,0 10.5,0c0,-8.47 0,-16.94 0,-25.66667c-1.155,0 -2.31,0 -3.5,0c0,-1.83176 0,-1.83176 1.89648,-1.84961z" fill="#121312"/><path d="M67.33333,27c5.17,0 10.34,0 15.66667,0c-0.055,9.13 -0.11,18.26 -0.16667,27.66667c6.875,0 13.75,0 20.83333,0c0,0.33 0,0.66 0,1c-6.985,0 -13.97,0 -21.16667,0c0,-8.965 0,-17.93 0,-27.16667c-0.11,0.055 -0.22,0.11 -0.33333,0.16667c-2.47914,0.01231 -4.95833,0.01391 -7.4375,0.01042c-1.37371,-0.0015 -2.74742,-0.00301 -4.16276,-0.00456c-1.60037,-0.0029 -1.60037,-0.0029 -3.23307,-0.00586c0,-0.55 0,-1.1 0,-1.66667z" fill="#3c3c3c"/><path d="M188.33333,28.66667c0.055,0 0.11,0 0.16667,0c0,8.91 0,17.82 0,27c-13.86,0 -27.72,0 -42,0c0,-0.33 0,-0.66 0,-1c13.805,0 27.61,0 41.83333,0c0,-8.58 0,-17.16 0,-26z" fill="#dadada"/><path d="M37.66667,48.66667c0.275,0 0.55,0 0.83333,0c0,1.98 0,3.96 0,6c11.495,0 22.99,0 34.83333,0c0,0.33 0,0.66 0,1c-11.495,0 -22.99,0 -34.83333,0c0,2.09 0,4.18 0,6.33333c-0.275,0 -0.55,0 -0.83333,0c0,-4.4 0,-8.8 0,-13.33333z" fill="#e4e5e4"/><path d="M89.16667,74.83333c20.9,0 41.8,0 63.33333,0c0,1.76 0,3.52 0,5.33333c-3.30027,3.30027 -9.33337,0.17745 -14.00065,0.18294c-8.79108,-0.0029 -8.79108,-0.0029 -17.75976,-0.00586c-5.86115,-0.0015 -11.72231,-0.00301 -17.76107,-0.00456c-4.55791,-0.00194 -9.11582,-0.00387 -13.81185,-0.00586c0,-1.815 0,-3.63 0,-5.5zM89.5,75.16667c0,1.595 0,3.19 0,4.83333c20.68,0 41.36,0 62.66667,0c0,-1.595 0,-3.19 0,-4.83333c-20.68,0 -41.36,0 -62.66667,0z" fill="#a4a5a4"/><path d="M19.66667,141.5c6.215,0 12.43,0 18.83333,0c0,5.775 0,11.55 0,17.5c-0.275,0 -0.55,0 -0.83333,0c0,-5.445 0,-10.89 0,-16.5c-5.61,0 -11.22,0 -17,0c0,4.18 0,8.36 0,12.66667c-0.33,0 -0.66,0 -1,0c0,-4.51 0,-9.02 0,-13.66667z" fill="#eaebea"/><path d="M276.16667,141.16667c0.55,0 1.1,0 1.66667,0c0,15.785 0,31.57 0,47.83333c-9.075,0 -18.15,0 -27.5,0c-0.055,-0.55 -0.11,-1.1 -0.16667,-1.66667c8.58,0 17.16,0 26,0c0,-15.235 0,-30.47 0,-46.16667zM276.5,141.33333c0,15.29 0,30.58 0,46.33333c-8.58,0 -17.16,0 -26,0c0,0.385 0,0.77 0,1.16667c8.91,0 17.82,0 27,0c0,-15.675 0,-31.35 0,-47.5c-0.33,0 -0.66,0 -1,0z" fill="#a7a7a7"/><path d="M247.66667,35c0.99,0 1.98,0 3,0c0,0.22 0,0.44 0,0.66667c0.55,0 1.1,0 1.66667,0c0,3.63 0,7.26 0,11c-0.22,0 -0.44,0 -0.66667,0c-0.06875,-0.25437 -0.1375,-0.50875 -0.20833,-0.77083c-0.22627,-0.73382 -0.42725,-1.32282 -0.95833,-1.89583c-0.72637,-0.30694 -0.72637,-0.30694 -1.5,-0.5c-0.33,-0.11 -0.66,-0.22 -1,-0.33333c-0.055,3.63 -0.11,7.26 -0.16667,11c0.88,0 1.76,0 2.66667,0c0,0.055 0,0.11 0,0.16667c-0.935,0 -1.87,0 -2.83333,0c0,-6.38 0,-12.76 0,-19.33333z" fill="#eff0ef"/><path d="M241.83333,35.5c3.375,0 3.375,0 4.66667,0.16667c0.18814,6.22224 0.18309,12.44203 0.16667,18.66667c-0.055,0 -0.11,0 -0.16667,0c-0.19858,-7.54255 -0.19858,-7.54255 -0.16667,-11.16667c-1.45093,0.31905 -2.25982,0.79088 -3.16667,2c-0.16448,0.42839 -0.16448,0.42839 -0.28125,0.875c-0.07219,0.26125 -0.14437,0.5225 -0.21875,0.79167c-0.275,0 -0.55,0 -0.83333,0c0,-3.74 0,-7.48 0,-11.33333z" fill="#f2f3f2"/><path d="M181,74.83333c10.2743,-0.00447 20.54861,-0.00772 30.82292,-0.01042c5.7215,-0.00193 11.44301,-0.00387 17.33789,-0.00586c13.50586,0.01628 13.50586,0.01628 13.67253,0.18294c0,1.76 0,3.52 0,5.33333c-20.405,0 -40.81,0 -61.83333,0c0,-1.815 0,-3.63 0,-5.5zM181.16667,75.16667c0,1.595 0,3.19 0,4.83333c20.24,0 40.48,0 61.33333,0c0,-1.595 0,-3.19 0,-4.83333c-20.24,0 -40.48,0 -61.33333,0z" fill="#a1a2a2"/><path d="M258.5,127.33333c0.11,0 0.22,0 0.33333,0c0,14.96 0,29.92 0,45.33333c-24.75,0 -49.5,0 -75,0c0,-0.11 0,-0.22 0,-0.33333c24.64,0 49.28,0 74.66667,0c0,-14.85 0,-29.7 0,-45z" fill="#dbdbdb"/><path d="M19.33333,155.5c0.55,0 1.1,0 1.66667,0c0,10.505 0,21.01 0,31.83333c8.58,0 17.16,0 26,0c-0.055,0.55 -0.11,1.1 -0.16667,1.66667c-4.55208,0.00446 -9.10417,0.00772 -13.65625,0.01042c-3.80241,0.0029 -3.80241,0.0029 -7.68164,0.00586c-5.99544,-0.01628 -5.99544,-0.01628 -6.16211,-0.18294c-0.01238,-5.55901 -0.01389,-11.11805 -0.01042,-16.67708c0.0015,-3.09225 0.00301,-6.18449 0.00456,-9.37044c0.00194,-2.40431 0.00387,-4.80863 0.00586,-7.28581zM19.66667,155.66667c0,10.89 0,21.78 0,33c8.91,0 17.82,0 27,0c0,-0.33 0,-0.66 0,-1c-8.58,0 -17.16,0 -26,0c0,-10.56 0,-21.12 0,-32c-0.33,0 -0.66,0 -1,0z" fill="#a6a6a6"/><path d="M253.5,35.5c3,0 3,0 4.66667,0.16667c0,2.365 0,4.73 0,7.16667c-0.5775,0.0825 -0.5775,0.0825 -1.16667,0.16667c-0.51369,0.24973 -0.51369,0.24973 -0.97917,0.57292c-0.23654,0.15436 -0.23654,0.15436 -0.47786,0.31185c-0.39097,0.24905 -0.39097,0.24905 -0.54297,0.61523c-0.11,0 -0.22,0 -0.33333,0c-0.165,0.715 -0.33,1.43 -0.5,2.16667c-0.22,0 -0.44,0 -0.66667,0c0,-3.685 0,-7.37 0,-11.16667z" fill="#f5f6f5"/><path d="M69.16536,82.14453c0.48856,0.00043 0.97711,0.00086 1.48047,0.0013c0.4877,-0.00043 0.97539,-0.00086 1.47786,-0.0013c1.20964,0.02213 1.20964,0.02213 1.70964,0.1888c0,7.425 0,14.85 0,22.5c-0.33,0 -0.66,0 -1,0c0,-7.095 0,-14.19 0,-21.5c-11.22,0 -22.44,0 -34,0c0,2.035 0,4.07 0,6.16667c-0.11,-0.055 -0.22,-0.11 -0.33333,-0.16667c0.055,-2.2 0.11,-4.4 0.16667,-6.66667c0.11,0.055 0.22,0.11 0.33333,0.16667c5.70134,0.04005 11.40274,0.06939 17.10417,0.09375c3.16809,0.01396 6.33617,0.02793 9.60026,0.04232c2.46254,0.0101 4.92508,0.02019 7.46224,0.0306c0.055,-0.11 0.11,-0.22 0.16667,-0.33333c-11.33,0 -22.66,0 -34.33333,0c0,-0.055 0,-0.11 0,-0.16667c3.11921,-0.01515 3.11921,-0.01515 6.30143,-0.0306c2.67459,-0.01396 5.34918,-0.02793 8.10482,-0.04232c4.01124,-0.0203 4.01124,-0.0203 8.10352,-0.04102c2.55305,-0.02129 5.10292,-0.19305 7.6556,-0.24154z" fill="#121212"/><path d="M238.32292,35.47917c0.26275,-0.00043 0.52551,-0.00086 0.79622,-0.0013c0.71419,0.02214 0.71419,0.02214 1.54753,0.1888c0,3.63 0,7.26 0,11c-0.22,0 -0.44,0 -0.66667,0c-0.02836,-0.12267 -0.05672,-0.24535 -0.08594,-0.37174c-0.39678,-1.59768 -0.90848,-2.23771 -2.3086,-3.08919c-0.51211,-0.26418 -0.51211,-0.26418 -1.4388,-0.3724c0,-2.365 0,-4.73 0,-7.16667c0.74494,-0.18624 1.3886,-0.18875 2.15625,-0.1875z" fill="#f7f8f7"/><path d="M233.33333,26.83333c8.085,0.055 16.17,0.11 24.5,0.16667c0,0.055 0,0.11 0,0.16667c-6.93,0 -13.86,0 -21,0c0,2.2 0,4.4 0,6.66667c2.75,0 5.5,0 8.33333,0c-0.165,0.0825 -0.165,0.0825 -0.33333,0.16667c0,0.495 0,0.99 0,1.5c-0.99,0 -1.98,0 -3,0c0,3.74 0,7.48 0,11.33333c0.275,0 0.55,0 0.83333,0c0,0.33 0,0.66 0,1c-0.935,0 -1.87,0 -2.83333,0c-0.04125,-0.36437 -0.0825,-0.72875 -0.125,-1.10417c-0.12662,-0.90839 -0.2759,-1.51025 -0.875,-2.22917c0,-0.11 0,-0.22 0,-0.33333c-0.18047,-0.06703 -0.18047,-0.06703 -0.36458,-0.13542c-0.46875,-0.19792 -0.46875,-0.19792 -0.875,-0.45833c-0.47935,-0.26891 -0.889,-0.32064 -1.42708,-0.40625c-0.47,-0.93999 -0.17987,-3.04385 -0.17708,-4.02083c0.0015,-0.67762 0.00301,-1.35523 0.00456,-2.05339c0.00194,-0.52551 0.00387,-1.05102 0.00586,-1.59245c0.22,0 0.44,0 0.66667,0c0,-2.805 0,-5.61 0,-8.5c-1.1,0 -2.2,0 -3.33333,0c0,-0.055 0,-0.11 0,-0.16667zM236.16667,35.66667c0,2.365 0,4.73 0,7.16667c0.385,0.11 0.77,0.22 1.16667,0.33333c1.09999,0.50829 1.85621,1.01361 2.33333,2.16667c0.12422,0.44096 0.23896,0.88504 0.33333,1.33333c0.22,0 0.44,0 0.66667,0c0,-3.63 0,-7.26 0,-11c-0.81218,-0.16243 -1.51755,-0.18885 -2.34375,-0.1875c-0.26318,-0.00043 -0.52637,-0.00086 -0.79753,-0.0013c-0.69457,-0.00219 -0.69457,-0.00219 -1.35872,0.1888z" fill="#9a9a9a"/><path d="M158.11003,101.81706c3.66319,0.0029 3.66319,0.0029 7.40039,0.00586c3.66384,0.00225 3.66384,0.00225 7.40169,0.00456c2.84851,0.0029 2.84851,0.0029 5.75456,0.00586c0,5.83 0,11.66 0,17.66667c-8.745,0 -17.49,0 -26.5,0c-0.01627,-13.6556 -0.01627,-13.6556 0,-17.5c1.40153,-1.40153 3.96131,-0.17736 5.94336,-0.18294zM152.5,102.16667c0,5.665 0,11.33 0,17.16667c2.75,0 5.5,0 8.33333,0c0,-5.665 0,-11.33 0,-17.16667c-2.75,0 -5.5,0 -8.33333,0zM161.16667,102.16667c0,5.665 0,11.33 0,17.16667c2.805,0 5.61,0 8.5,0c0,-5.665 0,-11.33 0,-17.16667c-2.805,0 -5.61,0 -8.5,0zM170,102.16667c0,5.61 0,11.22 0,17c2.75,0 5.5,0 8.33333,0c0,-5.61 0,-11.22 0,-17c-2.75,0 -5.5,0 -8.33333,0z" fill="#a1a1a1"/><path d="M136.83333,87c1.76,0 3.52,0 5.33333,0c2.12314,2.12314 0.17741,6.00329 0.18294,9.00586c-0.00194,3.7415 -0.00387,7.48301 -0.00586,11.33789c-0.0015,3.74193 -0.00301,7.48387 -0.00456,11.33919c-0.00194,2.90963 -0.00387,5.81926 -0.00586,8.81706c-1.815,0 -3.63,0 -5.5,0c0,-13.365 0,-26.73 0,-40.5zM137.16667,87.33333c0,13.145 0,26.29 0,39.83333c1.54,0 3.08,0 4.66667,0c0,-13.145 0,-26.29 0,-39.83333c-1.54,0 -3.08,0 -4.66667,0z" fill="#b7b7b7"/><path d="M23.74544,141.15039c1.79244,0.00193 3.58488,0.00387 5.43164,0.00586c2.68931,0.00225 2.68931,0.00225 5.43294,0.00456c2.09054,0.0029 2.09054,0.0029 4.22331,0.00586c0,6.05 0,12.1 0,18.33333c-0.55,0 -1.1,0 -1.66667,0c0,-5.5 0,-11 0,-16.66667c-5.335,0 -10.67,0 -16.16667,0c0,4.18 0,8.36 0,12.66667c-0.55,0 -1.1,0 -1.66667,0c-0.00446,-2.35764 -0.00772,-4.71528 -0.01042,-7.07292c-0.00193,-1.31291 -0.00387,-2.62582 -0.00586,-3.97852c0.01714,-3.28127 0.01714,-3.28127 4.42839,-3.29818zM19.66667,141.5c0,4.51 0,9.02 0,13.66667c0.33,0 0.66,0 1,0c0,-4.18 0,-8.36 0,-12.66667c5.61,0 11.22,0 17,0c0,5.445 0,10.89 0,16.5c0.275,0 0.55,0 0.83333,0c0,-5.775 0,-11.55 0,-17.5c-6.215,0 -12.43,0 -18.83333,0z" fill="#1e1f1e"/><path d="M170.66667,155.16667c-0.055,5.115 -0.11,10.23 -0.16667,15.5c-3.52,0 -7.04,0 -10.66667,0c-0.055,-4.73 -0.11,-9.46 -0.16667,-14.33333c-1.87,0 -3.74,0 -5.66667,0c0,-0.11 0,-0.22 0,-0.33333c-1.375,0 -2.75,0 -4.16667,0c0,5.885 0,11.77 0,17.83333c-0.055,0 -0.11,0 -0.16667,0c0,-5.995 0,-11.99 0,-18.16667c5.8125,0 5.8125,0 7.90625,0.08333c0.40197,0.01547 0.80394,0.03094 1.2181,0.04688c0.43345,0.01805 0.43345,0.01805 0.87565,0.03646c0,-0.165 0,-0.33 0,-0.5c2.86621,-0.9554 8.20933,-0.17224 11,-0.16667zM160.16667,157c0,4.455 0,8.91 0,13.5c3.355,0 6.71,0 10.16667,0c0,-4.455 0,-8.91 0,-13.5c-3.355,0 -6.71,0 -10.16667,0z" fill="#5d5e5e"/><path d="M37.16667,89.66667c0.22,0 0.44,0 0.66667,0c0,4.51 0,9.02 0,13.66667c-0.165,0 -0.33,0 -0.5,0c0.02729,1.02008 0.05457,2.04016 0.08268,3.09115c0.08879,4.48478 0.10004,8.9649 0.0944,13.45052c-0.0015,1.55805 -0.00301,3.11609 -0.00456,4.72135c-0.00194,1.1782 -0.00387,2.35641 -0.00586,3.57031c-0.055,0 -0.11,0 -0.16667,0c0,-2.53 0,-5.06 0,-7.66667c-5.83,0 -11.66,0 -17.66667,0c0,6.765 0,13.53 0,20.5c5.94,0 11.88,0 18,0c0,-1.595 0,-3.19 0,-4.83333c-0.11,-0.055 -0.22,-0.11 -0.33333,-0.16667c0.165,0 0.33,0 0.5,0c0.055,-1.595 0.11,-3.19 0.16667,-4.83333c0.11,0 0.22,0 0.33333,0c0,1.595 0,3.19 0,4.83333c0.11,0.055 0.22,0.11 0.33333,0.16667c-0.11,0 -0.22,0 -0.33333,0c-0.055,1.595 -0.11,3.19 -0.16667,4.83333c0.275,0 0.55,0 0.83333,0c0,6.105 0,12.21 0,18.5c-0.055,0 -0.11,0 -0.16667,0c0,-6.05 0,-12.1 0,-18.33333c-6.435,0.055 -12.87,0.11 -19.5,0.16667c0,-6.93 0,-13.86 0,-21c5.885,0 11.77,0 17.83333,0c0,-10.12 0,-20.24 0,-30.66667z" fill="#919291"/><path d="M192.54688,134.14453c5.95203,0.00043 11.90406,0.00086 18.03646,0.0013c5.95203,-0.00043 11.90406,-0.00086 18.03646,-0.0013c14.04688,0.02213 14.04688,0.02213 14.21354,0.1888c0,1.76 0,3.52 0,5.33333c-21.285,0 -42.57,0 -64.5,0c0,-5.49974 0,-5.49974 14.21354,-5.52213zM178.66667,134.5c0,1.65 0,3.3 0,5c21.065,0 42.13,0 63.83333,0c0,-1.65 0,-3.3 0,-5c-21.065,0 -42.13,0 -63.83333,0z" fill="#a2a2a2"/><path d="M89.16667,134.16667c20.9,0 41.8,0 63.33333,0c0,1.815 0,3.63 0,5.5c-20.9,0 -41.8,0 -63.33333,0c0,-1.815 0,-3.63 0,-5.5zM89.33333,134.5c0,1.65 0,3.3 0,5c20.735,0 41.47,0 62.83333,0c0,-1.65 0,-3.3 0,-5c-20.735,0 -41.47,0 -62.83333,0z" fill="#9fa0a0"/><path d="M258.33333,27.33333c0.385,0 0.77,0 1.16667,0c0,10.175 0,20.35 0,30.83333c-0.22,0 -0.44,0 -0.66667,0c0,-0.825 0,-1.65 0,-2.5c-1.045,0 -2.09,0 -3.16667,0c0,-0.33 0,-0.66 0,-1c0.99,0 1.98,0 3,0c0,-6.435 0,-12.87 0,-19.5c-0.55,0 -1.1,0 -1.66667,0c0,-0.275 0,-0.55 0,-0.83333c0.44,0 0.88,0 1.33333,0c0,-2.31 0,-4.62 0,-7z" fill="#efefee"/><path d="M238,173.66667c0.825,0 1.65,0 2.5,0c0,4.125 0,8.25 0,12.5c-0.825,0 -1.65,0 -2.5,0c0,-4.125 0,-8.25 0,-12.5z" fill="#f2f2f2"/><path d="M54,173.66667c0.825,0 1.65,0 2.5,0c0,4.125 0,8.25 0,12.5c-0.77,0 -1.54,0 -2.33333,0c-0.68039,-0.68039 -0.17717,-1.91866 -0.18294,-2.88086c0.0029,-1.71413 0.0029,-1.71413 0.00586,-3.46289c0.0015,-1.14318 0.00301,-2.28637 0.00456,-3.46419c0.00194,-0.88838 0.00387,-1.77676 0.00586,-2.69206z" fill="#f0f1f0"/><path d="M38.83333,103.33333c0.055,0 0.11,0 0.16667,0c0,2.09 0,4.18 0,6.33333c9.515,0 19.03,0 28.83333,0c0,0.055 0,0.11 0,0.16667c0.3951,0.0101 0.79019,0.02019 1.19726,0.0306c0.50897,0.01396 1.01793,0.02793 1.54232,0.04232c0.50854,0.01354 1.01707,0.02707 1.54102,0.04102c1.2194,0.05273 1.2194,0.05273 1.38607,0.2194c0.01233,1.47565 0.01391,2.95139 0.01042,4.42708c-0.0015,0.81834 -0.00301,1.63668 -0.00456,2.47982c-0.0029,0.95358 -0.0029,0.95358 -0.00586,1.92643c-0.11,0 -0.22,0 -0.33333,0c0,-2.86 0,-5.72 0,-8.66667c-11.77,0 -23.54,0 -35.66667,0c0,-2.2 0,-4.4 0,-6.66667c0.385,0 0.77,0 1.16667,0c0.055,-0.11 0.11,-0.22 0.16667,-0.33333z" fill="#2f2f2f"/><path d="M231.67708,86.97786c0.49156,0.00043 0.98313,0.00086 1.48958,0.0013c0.49156,-0.00043 0.98313,-0.00086 1.48958,-0.0013c1.17708,0.02213 1.17708,0.02213 1.34375,0.1888c0.01238,6.72569 0.01389,13.45139 0.01042,20.17708c-0.0015,3.74193 -0.00301,7.48387 -0.00456,11.33919c-0.00194,2.90963 -0.00387,5.81926 -0.00586,8.81706c-1.87,0 -3.74,0 -5.66667,0c-0.00446,-6.71875 -0.00772,-13.4375 -0.01042,-20.15625c-0.00193,-3.7415 -0.00387,-7.48301 -0.00586,-11.33789c0.01658,-9.00273 0.01658,-9.00273 1.36003,-9.02799zM230.66667,87.33333c0,13.2 0,26.4 0,40c1.65,0 3.3,0 5,0c0,-13.2 0,-26.4 0,-40c-1.65,0 -3.3,0 -5,0z" fill="#a9a9a9"/><path d="M110.17708,86.97786c0.49156,0.00043 0.98312,0.00086 1.48958,0.0013c0.49156,-0.00043 0.98313,-0.00086 1.48958,-0.0013c1.17708,0.02213 1.17708,0.02213 1.34375,0.1888c0.01238,6.72569 0.01389,13.45139 0.01042,20.17708c-0.0015,3.74193 -0.00301,7.48387 -0.00456,11.33919c-0.00194,2.90963 -0.00387,5.81926 -0.00586,8.81706c-1.87,0 -3.74,0 -5.66667,0c-0.00447,-6.71875 -0.00772,-13.4375 -0.01042,-20.15625c-0.00193,-3.7415 -0.00387,-7.48301 -0.00586,-11.33789c0.01658,-9.00273 0.01658,-9.00273 1.36003,-9.02799zM109.16667,87.33333c0,13.2 0,26.4 0,40c1.65,0 3.3,0 5,0c0,-13.2 0,-26.4 0,-40c-1.65,0 -3.3,0 -5,0z" fill="#aaabaa"/><path d="M235.5,173.66667c0.77,0 1.54,0 2.33333,0c0,4.125 0,8.25 0,12.5c-0.77,0 -1.54,0 -2.33333,0c0,-4.125 0,-8.25 0,-12.5z" fill="#f2f2f2"/><path d="M232.83333,173.66667c0.77,0 1.54,0 2.33333,0c0,4.125 0,8.25 0,12.5c-0.77,0 -1.54,0 -2.33333,0c0,-4.125 0,-8.25 0,-12.5z" fill="#f3f4f3"/><path d="M62,173.66667c0.77,0 1.54,0 2.33333,0c0,4.125 0,8.25 0,12.5c-0.77,0 -1.54,0 -2.33333,0c0,-4.125 0,-8.25 0,-12.5z" fill="#f5f6f5"/><path d="M56.66667,173.66667c0.77,0 1.54,0 2.33333,0c0,4.125 0,8.25 0,12.5c-0.77,0 -1.54,0 -2.33333,0c0,-4.125 0,-8.25 0,-12.5z" fill="#f5f5f5"/><path d="M240.66667,173.66667c0.77,0 1.54,0 2.33333,0c0,4.07 0,8.14 0,12.33333c-0.77,0 -1.54,0 -2.33333,0c0,-4.07 0,-8.14 0,-12.33333z" fill="#f6f7f6"/><path d="M59.33333,173.66667c0.77,0 1.54,0 2.33333,0c0,4.07 0,8.14 0,12.33333c-0.77,0 -1.54,0 -2.33333,0c0,-4.07 0,-8.14 0,-12.33333z" fill="#f7f7f7"/><path d="M258.83333,126c6.16,0 12.32,0 18.66667,0c0,4.84 0,9.68 0,14.66667c-0.275,0 -0.55,0 -0.83333,0c0,-4.565 0,-9.13 0,-13.83333c-5.885,0 -11.77,0 -17.83333,0c0,-0.275 0,-0.55 0,-0.83333z" fill="#f2f2f2"/><path d="M258.16667,125.66667c6.49,0 12.98,0 19.66667,0c0,5.115 0,10.23 0,15.5c-0.55,0 -1.1,0 -1.66667,0c0,-4.62 0,-9.24 0,-14c-5.94,0 -11.88,0 -18,0c0,-0.495 0,-0.99 0,-1.5zM258.83333,126c0,0.275 0,0.55 0,0.83333c5.885,0 11.77,0 17.83333,0c0,4.565 0,9.13 0,13.83333c0.275,0 0.55,0 0.83333,0c0,-4.84 0,-9.68 0,-14.66667c-6.16,0 -12.32,0 -18.66667,0z" fill="#323232"/><path d="M82.5,28.66667c0.055,0 0.11,0 0.16667,0c0,8.58 0,17.16 0,26c6.93,0 13.86,0 21,0c0,0.33 0,0.66 0,1c-6.985,0 -13.97,0 -21.16667,0c0,-8.91 0,-17.82 0,-27z" fill="#d5d5d5"/><path d="M37.33333,48.33333c0.55,0 1.1,0 1.66667,0c0,1.98 0,3.96 0,6c11.495,0 22.99,0 34.83333,0c0,7.645 0,15.29 0,23.16667c-0.275,0 -0.55,0 -0.83333,0c0,-0.11 0,-0.22 0,-0.33333c0.165,0 0.33,0 0.5,0c0,-6.985 0,-13.97 0,-21.16667c-0.165,-0.055 -0.33,-0.11 -0.5,-0.16667c0.11,-0.385 0.22,-0.77 0.33333,-1.16667c-11.495,0 -22.99,0 -34.83333,0c0,-1.98 0,-3.96 0,-6c-0.33,0 -0.66,0 -1,0c0,4.29 0,8.58 0,13c-0.055,0 -0.11,0 -0.16667,0c0,-4.4 0,-8.8 0,-13.33333z" fill="#161616"/><path d="M208.66667,27c2.805,0 5.61,0 8.5,0c0,0.495 0,0.99 0,1.5c1.1,0 2.2,0 3.33333,0c0,0.055 0,0.11 0,0.16667c-5.005,0 -10.01,0 -15.16667,0c0,7.04 0,14.08 0,21.33333c0.495,0 0.99,0 1.5,0c1.36612,0.53023 2.40271,1.83449 3.17708,3.03125c0.15625,0.63542 0.15625,0.63542 -0.01042,2.96875c3.795,0 7.59,0 11.5,0c0,0.055 0,0.11 0,0.16667c-3.85,0 -7.7,0 -11.66667,0c-0.055,-0.935 -0.11,-1.87 -0.16667,-2.83333c-0.65434,-1.29309 -1.50269,-2.20825 -2.85417,-2.80208c-0.67086,-0.21734 -0.67086,-0.21734 -1.47917,-0.36458c0,1.98 0,3.96 0,6c-3.85,0 -7.7,0 -11.66667,0c0,-0.055 0,-0.11 0,-0.16667c3.795,0 7.59,0 11.5,0c0,-9.075 0,-18.15 0,-27.5c1.155,0 2.31,0 3.5,0c0,-0.495 0,-0.99 0,-1.5z" fill="#828282"/><path d="M37.33333,26.83333c10.00161,-0.0187 19.99948,0.01302 30,0.16667c0,0.495 0,0.99 0,1.5c-4.51,0.055 -9.02,0.11 -13.66667,0.16667c0,-0.55 0,-1.1 0,-1.66667c-5.39,0 -10.78,0 -16.33333,0c0,-0.055 0,-0.11 0,-0.16667z" fill="#8e8e8e"/><path d="M122.83333,87c1.815,0 3.63,0 5.5,0c0,13.365 0,26.73 0,40.5c-1.815,0 -3.63,0 -5.5,0c0,-13.365 0,-26.73 0,-40.5zM123,87.33333c0,13.2 0,26.4 0,40c1.65,0 3.3,0 5,0c0,-13.2 0,-26.4 0,-40c-1.65,0 -3.3,0 -5,0z" fill="#9b9b9b"/><path d="M202.5,87c1.76,0 3.52,0 5.33333,0c2.12314,2.12314 0.17741,6.00329 0.18294,9.00586c-0.00194,3.7415 -0.00387,7.48301 -0.00586,11.33789c-0.0015,3.74193 -0.00301,7.48387 -0.00456,11.33919c-0.00194,2.90963 -0.00387,5.81926 -0.00586,8.81706c-1.815,0 -3.63,0 -5.5,0c0,-13.365 0,-26.73 0,-40.5zM202.66667,87.33333c0,13.2 0,26.4 0,40c1.65,0 3.3,0 5,0c0,-13.2 0,-26.4 0,-40c-1.65,0 -3.3,0 -5,0z" fill="#a1a1a1"/><path d="M188.66667,87c1.76,0 3.52,0 5.33333,0c0,13.365 0,26.73 0,40.5c-1.815,0 -3.63,0 -5.5,0c-0.00446,-6.71875 -0.00772,-13.4375 -0.01042,-20.15625c-0.00193,-3.7415 -0.00387,-7.48301 -0.00586,-11.33789c0.01628,-8.83919 0.01628,-8.83919 0.18294,-9.00586zM188.83333,87.33333c0,13.2 0,26.4 0,40c1.65,0 3.3,0 5,0c0,-13.2 0,-26.4 0,-40c-1.65,0 -3.3,0 -5,0z" fill="#969696"/><path d="M135.5,49.66667c0.055,0 0.11,0 0.16667,0c0,1.98 0,3.96 0,6c-6.985,0 -13.97,0 -21.16667,0c0,-0.33 0,-0.66 0,-1c6.93,0 13.86,0 21,0c0,-1.65 0,-3.3 0,-5z" fill="#dddddd"/><path d="M96.83333,26.83333c4.25775,-0.00928 8.51345,0.02786 12.77083,0.08333c1.80275,0.0232 1.80275,0.0232 3.64193,0.04688c1.36318,0.01805 1.36318,0.01805 2.75391,0.03646c0,0.495 0,0.99 0,1.5c-4.51,0.055 -9.02,0.11 -13.66667,0.16667c0,-0.55 0,-1.1 0,-1.66667c-1.815,0 -3.63,0 -5.5,0c0,-0.055 0,-0.11 0,-0.16667z" fill="#929292"/><path d="M37.33333,103.33333c0.495,0 0.99,0 1.5,0c0,2.09 0,4.18 0,6.33333c-0.055,0 -0.11,0 -0.16667,0c0,-1.98 0,-3.96 0,-6c-0.385,0 -0.77,0 -1.16667,0c0,2.2 0,4.4 0,6.66667c0.385,0 0.77,0 1.16667,0c0.055,-0.11 0.11,-0.22 0.16667,-0.33333c0,0.11 0,0.22 0,0.33333c11.33,0 22.66,0 34.33333,0c0,2.86 0,5.72 0,8.66667c0.11,0 0.22,0 0.33333,0c-0.055,-2.915 -0.11,-5.83 -0.16667,-8.83333c-8.8,-0.055 -17.6,-0.11 -26.66667,-0.16667c0,-0.055 0,-0.11 0,-0.16667c1.5241,-0.0101 3.0482,-0.0202 4.61849,-0.0306c1.96152,-0.01396 3.92305,-0.02793 5.94401,-0.04232c2.941,-0.0203 2.941,-0.0203 5.94141,-0.04101c2.58599,0.25362 2.58599,0.25362 4.99609,-0.2194c1.88977,0.02998 3.77765,0.1037 5.66667,0.16667c0,3.19 0,6.38 0,9.66667c-0.33,0 -0.66,0 -1,0c0,-2.915 0,-5.83 0,-8.83333c-11.715,0.055 -23.43,0.11 -35.5,0.16667c0,-2.42 0,-4.84 0,-7.33333z" fill="#0a0a0a"/><path d="M158.06771,86.97786c2.42516,0.00043 4.85031,0.00086 7.34896,0.0013c3.63774,-0.00064 3.63774,-0.00064 7.34896,-0.0013c5.73438,0.02213 5.73438,0.02213 5.90104,0.1888c0,1.21 0,2.42 0,3.66667c-4.38541,0.00446 -8.77083,0.00772 -13.15625,0.01042c-3.66319,0.0029 -3.66319,0.0029 -7.40039,0.00586c-5.77669,-0.01628 -5.77669,-0.01628 -5.94336,-0.18294c-0.01663,-0.58314 -0.02161,-1.16662 -0.02083,-1.75c-0.00043,-0.3214 -0.00086,-0.64281 -0.0013,-0.97396c0.07785,-2.72922 1.75657,-0.94876 5.92318,-0.96484zM152.5,87.33333c0,1.045 0,2.09 0,3.16667c8.525,0 17.05,0 25.83333,0c0,-1.045 0,-2.09 0,-3.16667c-8.525,0 -17.05,0 -25.83333,0z" fill="#a6a6a6"/><path d="M37.16667,27c0.055,0 0.11,0 0.16667,0c0,2.53 0,5.06 0,7.66667c0.495,0 0.99,0 1.5,0c0,4.4 0,8.8 0,13.33333c-0.055,0 -0.11,0 -0.16667,0c0,-4.345 0,-8.69 0,-13.16667c-0.11,0 -0.22,0 -0.33333,0c0,4.4 0,8.8 0,13.33333c0.165,0.055 0.33,0.11 0.5,0.16667c-0.55,0.055 -1.1,0.11 -1.66667,0.16667c0,-7.095 0,-14.19 0,-21.5z" fill="#8f8f8f"/><path d="M220.83333,28.66667c0.11,0 0.22,0 0.33333,0c0,8.91 0,17.82 0,27c-3.575,0 -7.15,0 -10.83333,0c0,-0.33 0,-0.66 0,-1c3.465,0 6.93,0 10.5,0c0,-8.58 0,-17.16 0,-26z" fill="#828282"/><path d="M174.33333,27c5.94,0 11.88,0 18,0c0,0.495 0,0.99 0,1.5c-1.1,0 -2.2,0 -3.33333,0c0,7.04 0,14.08 0,21.33333c-0.055,0 -0.11,0 -0.16667,0c-0.055,-7.04 -0.11,-14.08 -0.16667,-21.33333c-0.22,0.055 -0.44,0.11 -0.66667,0.16667c0,8.47 0,16.94 0,25.66667c-0.055,0 -0.11,0 -0.16667,0c0,-8.8 0,-17.6 0,-26.66667c-4.455,0 -8.91,0 -13.5,0c0,-0.055 0,-0.11 0,-0.16667c4.455,0 8.91,0 13.5,0c0,-0.11 0,-0.22 0,-0.33333c-4.455,0 -8.91,0 -13.5,0c0,-0.055 0,-0.11 0,-0.16667z" fill="#5a5b5a"/><path d="M204.5,28.66667c0.11,0 0.22,0 0.33333,0c0,8.91 0,17.82 0,27c-3.52,0 -7.04,0 -10.66667,0c0,-0.33 0,-0.66 0,-1c3.41,0 6.82,0 10.33333,0c0,-8.58 0,-17.16 0,-26z" fill="#8e8f8e"/><path d="M69.16536,82.14453c0.48856,0.00043 0.97711,0.00086 1.48047,0.0013c0.4877,-0.00043 0.97539,-0.00086 1.47786,-0.0013c1.20964,0.02213 1.20964,0.02213 1.70964,0.1888c0,7.425 0,14.85 0,22.5c-0.33,0 -0.66,0 -1,0c0.055,-0.165 0.11,-0.33 0.16667,-0.5c0.11,0 0.22,0 0.33333,0c0,-7.15 0,-14.3 0,-21.66667c-11.33,0 -22.66,0 -34.33333,0c0,-0.055 0,-0.11 0,-0.16667c3.11921,-0.01515 3.11921,-0.01515 6.30143,-0.0306c2.67459,-0.01396 5.34918,-0.02793 8.10482,-0.04232c4.01124,-0.0203 4.01124,-0.0203 8.10352,-0.04102c2.55305,-0.02129 5.10292,-0.19305 7.6556,-0.24154z" fill="#171717"/><path d="M70.16667,28.33333c4.125,0 8.25,0 12.5,0c-0.055,9.02 -0.11,18.04 -0.16667,27.33333c7.04,0 14.08,0 21.33333,0c0,0.11 0,0.22 0,0.33333c-7.15,0 -14.3,0 -21.66667,0c0,-9.075 0,-18.15 0,-27.5c-3.96,0 -7.92,0 -12,0c0,-0.055 0,-0.11 0,-0.16667z" fill="#080808"/><path d="M37.66667,27.33333c5.17,0 10.34,0 15.66667,0c0,0.275 0,0.55 0,0.83333c-4.895,0 -9.79,0 -14.83333,0c0,1.98 0,3.96 0,6c-0.275,0 -0.55,0 -0.83333,0c0,-2.255 0,-4.51 0,-6.83333z" fill="#f2f2f2"/><path d="M23.70898,141.15039c1.77697,0.00193 3.55394,0.00387 5.38477,0.00586c2.6661,0.00225 2.6661,0.00225 5.38607,0.00456c1.38166,0.00193 2.76332,0.00387 4.18685,0.00586c0,0.055 0,0.11 0,0.16667c-6.27,0 -12.54,0 -19,0c0,4.565 0,9.13 0,13.83333c0.33,0 0.66,0 1,0c0,-4.18 0,-8.36 0,-12.66667c5.5,0 11,0 16.66667,0c0,0.11 0,0.22 0,0.33333c-5.39,0 -10.78,0 -16.33333,0c0,4.18 0,8.36 0,12.66667c-0.55,0 -1.1,0 -1.66667,0c-0.00446,-2.35764 -0.00772,-4.71528 -0.01042,-7.07292c-0.00193,-1.31291 -0.00387,-2.62582 -0.00586,-3.97852c0.01714,-3.28126 0.01714,-3.28126 4.39193,-3.29818z" fill="#131313"/><path d="M94.5,172.66667c17.215,0 34.43,0 52.16667,0c0,0.165 0,0.33 0,0.5c-17.215,-0.055 -34.43,-0.11 -52.16667,-0.16667c0,-0.11 0,-0.22 0,-0.33333z" fill="#6b6b6b"/><path d="M258,27c0.66,0 1.32,0 2,0c0,10.45 0,20.9 0,31.66667c-0.605,0 -1.21,0 -1.83333,0c0,-0.88 0,-1.76 0,-2.66667c-0.88,0 -1.76,0 -2.66667,0c0,-0.55 0,-1.1 0,-1.66667c0.935,0 1.87,0 2.83333,0c-0.00193,-0.25395 -0.00387,-0.50789 -0.00586,-0.76953c-0.0091,-2.08388 0.02553,-4.15159 0.17253,-6.23047c0.055,0 0.11,0 0.16667,0c0,2.42 0,4.84 0,7.33333c-0.99,0 -1.98,0 -3,0c0,0.33 0,0.66 0,1c0.99,0 1.98,0 3,0c0,0.88 0,1.76 0,2.66667c0.33,0 0.66,0 1,0c0,-10.285 0,-20.57 0,-31.16667c-0.495,0 -0.99,0 -1.5,0c0,1.76 0,3.52 0,5.33333c-0.055,0 -0.11,0 -0.16667,0c0,-1.815 0,-3.63 0,-5.5z" fill="#191919"/><path d="M38,159.5c0.11,0 0.22,0 0.33333,0c0.01732,3.33813 0.00542,6.66576 -0.16667,10c0.275,0 0.55,0 0.83333,0c0,0.88 0,1.76 0,2.66667c0.825,0 1.65,0 2.5,0c0.055,0.55 0.11,1.1 0.16667,1.66667c-1.485,0 -2.97,0 -4.5,0c0,-1.485 0,-2.97 0,-4.5c0.165,0 0.33,0 0.5,0c0,-1.54 0,-3.08 0,-4.66667c-0.165,0 -0.33,0 -0.5,0c0,-0.11 0,-0.22 0,-0.33333c0.165,0 0.33,0 0.5,0c0,-0.275 0,-0.55 0,-0.83333c0.11,0 0.22,0 0.33333,0c0,-1.32 0,-2.64 0,-4z" fill="#383938"/><path d="M188.33333,28.5c0.11,0 0.22,0 0.33333,0c0.50427,3.52991 0.23378,7.38237 0.26042,10.92708c0.02095,2.68157 0.02095,2.68157 0.04232,5.41732c0.02315,3.77403 0.0306,7.54816 0.0306,11.32226c-14.19,0 -28.38,0 -43,0c0,-0.055 0,-0.11 0,-0.16667c14.135,0 28.27,0 42.83333,0c-0.11,-0.11 -0.22,-0.22 -0.33333,-0.33333c-0.05237,-4.53455 -0.08327,-9.06936 -0.10417,-13.60417c-0.01246,-2.5184 -0.02492,-5.0368 -0.03776,-7.63151c-0.00816,-1.95723 -0.01633,-3.91445 -0.02474,-5.93099z" fill="#3a3a3b"/><path d="M181.16667,155.5c0.275,0 0.55,0 0.83333,0c0,5.61 0,11.22 0,17c0.44,0 0.88,0 1.33333,0c0,0.33 0,0.66 0,1c-0.715,0 -1.43,0 -2.16667,0c0,-5.94 0,-11.88 0,-18z" fill="#eeefef"/><path d="M148.5,155.66667c0.275,0 0.55,0 0.83333,0c0,5.885 0,11.77 0,17.83333c-0.715,0 -1.43,0 -2.16667,0c0,-0.33 0,-0.66 0,-1c0.44,0 0.88,0 1.33333,0c0,-5.555 0,-11.11 0,-16.83333z" fill="#ecedec"/><path d="M37.5,62.5c0.385,0 0.77,0 1.16667,0c0,4.455 0,8.91 0,13.5c-0.385,0 -0.77,0 -1.16667,0c0,-4.455 0,-8.91 0,-13.5z" fill="#a1a1a1"/><path d="M239.83333,34c0.66,0 1.32,0 2,0c0,4.235 0,8.47 0,12.83333c0.275,0 0.55,0 0.83333,0c0,0.33 0,0.66 0,1c-0.88,0 -1.76,0 -2.66667,0c0,-0.33 0,-0.66 0,-1c0.275,0 0.55,0 0.83333,0c0,-3.795 0,-7.59 0,-11.5c0.22,0 0.44,0 0.66667,0c0,-0.385 0,-0.77 0,-1.16667c-0.385,0.055 -0.77,0.11 -1.16667,0.16667c-0.055,0.33 -0.11,0.66 -0.16667,1c-0.33333,-0.5 -0.33333,-0.5 -0.33333,-1.33333z" fill="#2d2e2d"/><path d="M146,54.5c0.165,0 0.33,0 0.5,0c0,0.385 0,0.77 0,1.16667c13.915,0 27.83,0 42.16667,0c0.055,-0.165 0.11,-0.33 0.16667,-0.5c0,0.275 0,0.55 0,0.83333c-14.135,0 -28.27,0 -42.83333,0c0,-0.495 0,-0.99 0,-1.5z" fill="#060506"/><path d="M37.5,110.5c11.66,0 23.32,0 35.33333,0c0,0.055 0,0.11 0,0.16667c-11.385,0 -22.77,0 -34.5,0c0,5.775 0,11.55 0,17.5c-0.165,0 -0.33,0 -0.5,0c0,-5.775 0,-11.55 0,-17.5c-0.11,-0.055 -0.22,-0.11 -0.33333,-0.16667z" fill="#636363"/><path d="M73,129.5c0.275,0 0.55,0 0.83333,0c0,14.135 0,28.27 0,42.83333c-0.11,0 -0.22,0 -0.33333,0c0,-14.025 0,-28.05 0,-42.5c-0.165,0 -0.33,0 -0.5,0c0,-0.11 0,-0.22 0,-0.33333z" fill="#030303"/><path d="M38.83333,110c5.74653,-0.00446 11.49305,-0.00772 17.23958,-0.01042c3.2001,-0.00193 6.4002,-0.00387 9.69727,-0.00586c7.56315,0.01628 7.56315,0.01628 7.72982,0.18294c0.01233,1.47565 0.01391,2.95139 0.01042,4.42708c-0.0015,0.81834 -0.00301,1.63668 -0.00456,2.47982c-0.0029,0.95358 -0.0029,0.95358 -0.00586,1.92643c-0.11,0 -0.22,0 -0.33333,0c0,-2.86 0,-5.72 0,-8.66667c-11.33,0 -22.66,0 -34.33333,0c0,-0.11 0,-0.22 0,-0.33333z" fill="#797979"/><path d="M220.5,28.66667c0.055,0 0.11,0 0.16667,0c0.13009,8.66733 0.18833,17.33172 0.16667,26c-3.465,0 -6.93,0 -10.5,0c0,0.33 0,0.66 0,1c1.79863,-0.01887 3.59724,-0.04014 5.39583,-0.0625c1.5024,-0.0174 1.5024,-0.0174 3.03516,-0.03516c2.19764,0.21197 2.19764,0.21197 2.73568,-0.40234c0,0.275 0,0.55 0,0.83333c-3.795,0 -7.59,0 -11.5,0c0,-0.55 0,-1.1 0,-1.66667c3.465,0 6.93,0 10.5,0c0,-8.47 0,-16.94 0,-25.66667z" fill="#292929"/><path d="M52.5,186.16667c0.55,0 1.1,0 1.66667,0c0,0.935 0,1.87 0,2.83333c-2.42,0 -4.84,0 -7.33333,0c0,-1.5 0,-1.5 0.16667,-1.66667c0.92006,-0.01228 1.84028,-0.01391 2.76042,-0.01042c0.50896,0.0015 1.01793,0.00301 1.54232,0.00456c0.59265,0.0029 0.59265,0.0029 1.19727,0.00586c0,-0.385 0,-0.77 0,-1.16667z" fill="#191a19"/><path d="M188.16667,26.83333c4.16777,-0.03696 8.33353,0.07371 12.5,0.16667c0,0.495 0,0.99 0,1.5c-1.28818,0.02823 -2.57638,0.0559 -3.86458,0.08333c-0.71736,0.01547 -1.43473,0.03094 -2.17383,0.04688c-1.8767,0.03215 -3.75135,0.04306 -5.62825,0.03646c0,-0.055 0,-0.11 0,-0.16667c1.1,0 2.2,0 3.33333,0c0,-0.495 0,-0.99 0,-1.5c-1.375,0 -2.75,0 -4.16667,0c0,-0.055 0,-0.11 0,-0.16667z" fill="#8c8c8c"/><path d="M242.66667,75c0.055,0 0.11,0 0.16667,0c0,1.76 0,3.52 0,5.33333c-12.28142,0 -24.5624,-0.04183 -36.84375,-0.08333c-4.60475,-0.01547 -9.20949,-0.03094 -13.95378,-0.04687c-5.29772,-0.01805 -5.29772,-0.01805 -10.70247,-0.03646c0,-0.055 0,-0.11 0,-0.16667c20.185,0 40.37,0 61.16667,0c0,-1.595 0,-3.19 0,-4.83333c0.055,-0.055 0.11,-0.11 0.16667,-0.16667z" fill="#aaaaaa"/><path d="M225,27c2.75,0 5.5,0 8.33333,0c0,0.495 0,0.99 0,1.5c0.55,0 1.1,0 1.66667,0c0,0.055 0,0.11 0,0.16667c-4.95,-0.0825 -4.95,-0.0825 -10,-0.16667c0,-0.495 0,-0.99 0,-1.5z" fill="#919292"/><path d="M205,28.66667c0.055,0 0.11,0 0.16667,0c0,9.02 0,18.04 0,27.33333c-3.52,0 -7.04,0 -10.66667,0c0.0825,-0.165 0.0825,-0.165 0.16667,-0.33333c3.355,0 6.71,0 10.16667,0c-0.0029,-2.90265 -0.0029,-2.90265 -0.00586,-5.86393c-0.0015,-2.48897 -0.00301,-4.97793 -0.00456,-7.54232c-0.0029,-3.7328 -0.0029,-3.7328 -0.00586,-7.54102c0.01628,-5.88607 0.01628,-5.88607 0.18294,-6.05273z" fill="#040404"/><path d="M67.66667,27.33333c4.95,0 9.9,0 15,0c0,0.275 0,0.55 0,0.83333c-4.95,0 -9.9,0 -15,0c0,-0.275 0,-0.55 0,-0.83333z" fill="#efefef"/><path d="M247,35.5c0.11,0 0.22,0 0.33333,0c0,6.325 0,12.65 0,19.16667c0.935,0 1.87,0 2.83333,0c0,0.33 0,0.66 0,1c-1.98,0 -3.96,0 -6,0c0,-0.33 0,-0.66 0,-1c0.935,0 1.87,0 2.83333,0c0,-6.325 0,-12.65 0,-19.16667z" fill="#7e7e7e"/><path d="M243.33333,173.66667c0.33,0 0.66,0 1,0c0,4.07 0,8.14 0,12.33333c-0.33,0 -0.66,0 -1,0c0,-4.07 0,-8.14 0,-12.33333z" fill="#f8f8f8"/><path d="M52.66667,173.66667c0.33,0 0.66,0 1,0c0,4.07 0,8.14 0,12.33333c-0.33,0 -0.66,0 -1,0c0,-4.07 0,-8.14 0,-12.33333z" fill="#f0f1f0"/><path d="M155.66667,26.83333c10.725,0 21.45,0 32.5,0c0,0.055 0,0.11 0,0.16667c-6.27,0 -12.54,0 -19,0c0,0.165 0,0.33 0,0.5c-4.455,0 -8.91,0 -13.5,0c0,-0.22 0,-0.44 0,-0.66667z" fill="#b1b1b0"/><path d="M253.16667,34c0.055,0 0.11,0 0.16667,0c0,4.235 0,8.47 0,12.83333c0.33,0 0.66,0 1,0c0,0.275 0,0.55 0,0.83333c-0.88,0 -1.76,0 -2.66667,0c0,-0.275 0,-0.55 0,-0.83333c0.275,0 0.55,0 0.83333,0c-0.055,-3.795 -0.11,-7.59 -0.16667,-11.5c0.22,-0.055 0.44,-0.11 0.66667,-0.16667c0.055,-0.385 0.11,-0.77 0.16667,-1.16667z" fill="#343434"/><path d="M37.16667,89.66667c0.22,0 0.44,0 0.66667,0c0,4.51 0,9.02 0,13.66667c-0.165,0 -0.33,0 -0.5,0c0,5.61 0,11.22 0,17c-0.055,0 -0.11,0 -0.16667,0c0,-10.12 0,-20.24 0,-30.66667z" fill="#a9a9a9"/><path d="M226.66667,54.66667c3.905,0 7.81,0 11.83333,0c0,0.33 0,0.66 0,1c-3.905,0 -7.81,0 -11.83333,0c0,-0.33 0,-0.66 0,-1z" fill="#dddddd"/><path d="M235.33333,35.5c0.11,0 0.22,0 0.33333,0c0,6.325 0,12.65 0,19.16667c-2.97,0 -5.94,0 -9,0c0,0.33 0,0.66 0,1c-0.0825,0.165 -0.0825,0.165 -0.16667,0.33333c4.07,0 8.14,0 12.33333,0c0,0.055 0,0.11 0,0.16667c-4.125,0 -8.25,0 -12.5,0c0,-0.605 0,-1.21 0,-1.83333c1.4375,-0.00447 2.875,-0.00772 4.3125,-0.01042c1.20076,-0.0029 1.20076,-0.0029 2.42578,-0.00586c1.92839,0.01628 1.92839,0.01628 2.26172,0.18294c0,-6.27 0,-12.54 0,-19z" fill="#404040"/><path d="M136,27.66667c4.455,0 8.91,0 13.5,0c0,0.275 0,0.55 0,0.83333c-4.455,0 -8.91,0 -13.5,0c0,-0.275 0,-0.55 0,-0.83333z" fill="#9d9d9d"/><path d="M121.5,27.66667c4.455,0 8.91,0 13.5,0c0,0.275 0,0.55 0,0.83333c-4.455,0 -8.91,0 -13.5,0c0,-0.275 0,-0.55 0,-0.83333z" fill="#9d9d9d"/><path d="M37.66667,76.33333c0.275,0 0.55,0 0.83333,0c0,4.29 0,8.58 0,13c-0.275,0 -0.55,0 -0.83333,0c0,-4.29 0,-8.58 0,-13z" fill="#f4f4f4"/><path d="M37.16667,48.5c0.165,0.055 0.33,0.11 0.5,0.16667c0,4.4 0,8.8 0,13.33333c0.275,0 0.55,0 0.83333,0c0.11,0.11 0.22,0.22 0.33333,0.33333c0,-2.035 0,-4.07 0,-6.16667c0.055,0 0.11,0 0.16667,0c0.0086,4.49391 -0.0244,8.98565 -0.08333,13.47917c-0.01547,1.19582 -0.03094,2.39164 -0.04687,3.6237c-0.01203,0.90105 -0.02406,1.80211 -0.03646,2.73047c-0.055,0 -0.11,0 -0.16667,0c0,-4.455 0,-8.91 0,-13.5c-0.385,0 -0.77,0 -1.16667,0c0,4.455 0,8.91 0,13.5c-0.055,0 -0.11,0 -0.16667,0c-0.13581,-9.1673 -0.18743,-18.33172 -0.16667,-27.5z" fill="#636363"/><path d="M135,49c0.33,0 0.66,0 1,0c0,1.925 0,3.85 0,5.83333c0.75281,-0.00344 1.50563,-0.00688 2.28125,-0.01042c2.57611,-0.00119 5.14508,0.06993 7.71875,0.17708c0,0.165 0,0.33 0,0.5c-1.925,0 -3.85,0 -5.83333,0c0,-0.11 0,-0.22 0,-0.33333c-1.375,0 -2.75,0 -4.16667,0c0,0.33 0,0.66 0,1c-7.15,0 -14.3,0 -21.66667,0c0,-0.055 0,-0.11 0,-0.16667c7.095,0 14.19,0 21.5,0c0,-2.255 0,-4.51 0,-6.83333c-0.22,0 -0.44,0 -0.66667,0c0,1.705 0,3.41 0,5.16667c-0.055,0 -0.11,0 -0.16667,0c0,-1.76 0,-3.52 0,-5.33333z" fill="#585858"/><path d="M189.84961,86.98372c0.49307,0.00193 0.98613,0.00387 1.49414,0.00586c0.4935,0.0015 0.98699,0.00301 1.49544,0.00456c0.38307,0.00193 0.76613,0.00387 1.16081,0.00586c-0.055,0.11 -0.11,0.22 -0.16667,0.33333c-1.65,0 -3.3,0 -5,0c0.00172,1.32601 0.00344,2.65203 0.00521,4.01823c-0.0063,7.23023 -0.04687,14.45999 -0.08854,21.69011c-0.01547,2.70961 -0.03094,5.41922 -0.04687,8.21094c-0.01203,2.06164 -0.02406,4.12328 -0.03646,6.2474c-0.055,0 -0.11,0 -0.16667,0c-0.00446,-6.71875 -0.00771,-13.4375 -0.01042,-20.15625c-0.00193,-3.7415 -0.00387,-7.48301 -0.00586,-11.33789c0.01658,-9.00357 0.01658,-9.00357 1.36589,-9.02213z" fill="#a4a4a4"/><path d="M135,33.83333c0.22,0 0.44,0 0.66667,0c0,5.005 0,10.01 0,15.16667c-0.22,0 -0.44,0 -0.66667,0c0,-5.005 0,-10.01 0,-15.16667z" fill="#cbcbcb"/><path d="M117.34961,26.81706c0.49307,0.00193 0.98613,0.00387 1.49414,0.00586c0.4935,0.0015 0.98699,0.00301 1.49544,0.00456c0.38307,0.00193 0.76613,0.00387 1.16081,0.00586c0,0.605 0,1.21 0,1.83333c-1.815,0 -3.63,0 -5.5,0c0,-1.83104 0,-1.83104 1.34961,-1.84961z" fill="#303130"/><path d="M96.66667,27c1.87,0 3.74,0 5.66667,0c0,0.55 0,1.1 0,1.66667c-1.87,0 -3.74,0 -5.66667,0c0,-0.55 0,-1.1 0,-1.66667z" fill="#292929"/><path d="M56.5,173.66667c0.055,0 0.11,0 0.16667,0c0,4.125 0,8.25 0,12.5c0.77,0 1.54,0 2.33333,0c0,-4.125 0,-8.25 0,-12.5c0.11,0 0.22,0 0.33333,0c0,4.07 0,8.14 0,12.33333c0.77,0 1.54,0 2.33333,0c0,0.055 0,0.11 0,0.16667c-1.66463,0.13746 -3.30909,0.18447 -4.97917,0.17708c-0.66451,-0.00226 -0.66451,-0.00226 -1.34245,-0.00456c-0.5008,-0.0029 -0.5008,-0.0029 -1.01172,-0.00586c0,0.935 0,1.87 0,2.83333c-2.475,0 -4.95,0 -7.5,0c0,-0.055 0,-0.11 0,-0.16667c2.42,0 4.84,0 7.33333,0c0,-0.935 0,-1.87 0,-2.83333c0.77,0 1.54,0 2.33333,0c0,-4.125 0,-8.25 0,-12.5z" fill="#8f908f"/><path d="M38.16667,89.83333c0.22,0 0.44,0 0.66667,0c0,4.4 0,8.8 0,13.33333c-0.22,0 -0.44,0 -0.66667,0c0,-4.4 0,-8.8 0,-13.33333z" fill="#a4a5a4"/><path d="M149.66667,27c1.925,0 3.85,0 5.83333,0c0,0.495 0,0.99 0,1.5c-1.925,0 -3.85,0 -5.83333,0c0,-0.495 0,-0.99 0,-1.5z" fill="#212221"/><path d="M246.4375,33.82292c0.22902,0.0015 0.45805,0.00301 0.69401,0.00456c0.2649,0.0029 0.2649,0.0029 0.53516,0.00586c0,0.22 0,0.44 0,0.66667c0.99,0 1.98,0 3,0c0,0.165 0,0.33 0,0.5c-0.99,0 -1.98,0 -3,0c0,2.585 0,5.17 0,7.83333c-0.055,0 -0.11,0 -0.16667,0c0,-2.53 0,-5.06 0,-7.66667c-0.275,0.055 -0.55,0.11 -0.83333,0.16667c0,2.475 0,4.95 0,7.5c-0.055,0 -0.11,0 -0.16667,0c0,-2.365 0,-4.73 0,-7.16667c-0.55,0 -1.1,0 -1.66667,0c0,-0.55 0,-1.1 0,-1.66667c0.52019,-0.26009 1.02774,-0.18197 1.60417,-0.17708z" fill="#707070"/><path d="M259.16667,127.33333c0.055,0 0.11,0 0.16667,0c0,15.125 0,30.25 0,45.83333c-1.76,0 -3.52,0 -5.33333,0c0,-0.055 0,-0.11 0,-0.16667c0.34697,-0.0101 0.69394,-0.0202 1.05143,-0.0306c0.44709,-0.01396 0.89418,-0.02793 1.35482,-0.04232c0.44666,-0.01353 0.89332,-0.02707 1.35352,-0.04102c0.98613,0.07201 0.98613,0.07201 1.24023,-0.2194c0.04013,-7.55899 0.06942,-15.11803 0.09375,-22.67708c0.01396,-4.206 0.02793,-8.41199 0.04232,-12.74544c0.0101,-3.27057 0.0202,-6.54113 0.0306,-9.91081z" fill="#727272"/><path d="M37.33333,142.5c0.11,0 0.22,0 0.33333,0c0,5.5 0,11 0,16.66667c0.275,0 0.55,0 0.83333,0c0,0.055 0,0.11 0,0.16667c-0.44,0.055 -0.88,0.11 -1.33333,0.16667c-0.00447,-2.77083 -0.00772,-5.54166 -0.01042,-8.3125c-0.00193,-1.54301 -0.00387,-3.08601 -0.00586,-4.67578c0.01628,-3.67839 0.01628,-3.67839 0.18294,-4.01172z" fill="#323232"/><path d="M135.33333,49.5c0.165,0.0825 0.165,0.0825 0.33333,0.16667c-0.055,1.65 -0.11,3.3 -0.16667,5c-6.93,0 -13.86,0 -21,0c0,0.33 0,0.66 0,1c-0.165,0.0825 -0.165,0.0825 -0.33333,0.16667c0,-0.495 0,-0.99 0,-1.5c3.46528,-0.00447 6.93056,-0.00772 10.39583,-0.01042c1.92973,-0.00193 3.85945,-0.00387 5.84766,-0.00586c4.58984,0.01628 4.58984,0.01628 4.92318,0.18294c0,-1.65 0,-3.3 0,-5z" fill="#1f1f1f"/><path d="M73.33333,54.5c0.165,0 0.33,0 0.5,0c0,7.59 0,15.18 0,23c-0.275,0 -0.55,0 -0.83333,0c0,-0.11 0,-0.22 0,-0.33333c0.165,0 0.33,0 0.5,0c0,-6.985 0,-13.97 0,-21.16667c-0.165,-0.055 -0.33,-0.11 -0.5,-0.16667c0.055,-0.055 0.11,-0.11 0.16667,-0.16667c0.06127,-0.38803 0.11707,-0.77697 0.16667,-1.16667z" fill="#040405"/><path d="M159.66667,155.33333c0.055,0 0.11,0 0.16667,0c0,0.495 0,0.99 0,1.5c-0.0825,-0.2475 -0.0825,-0.2475 -0.16667,-0.5c-1.87,0 -3.74,0 -5.66667,0c0,-0.11 0,-0.22 0,-0.33333c-1.375,0 -2.75,0 -4.16667,0c0,5.885 0,11.77 0,17.83333c-0.055,0 -0.11,0 -0.16667,0c0,-5.995 0,-11.99 0,-18.16667c5.8125,0 5.8125,0 7.90625,0.08333c0.40197,0.01547 0.80394,0.03094 1.2181,0.04688c0.43345,0.01805 0.43345,0.01805 0.87565,0.03646c0,-0.165 0,-0.33 0,-0.5z" fill="#8b8c8c"/><path d="M247.5,35.16667c0.19858,8.27305 0.19858,8.27305 0.16667,12.16667c-0.165,0.0825 -0.165,0.0825 -0.33333,0.16667c0,-3.96 0,-7.92 0,-12c-0.11,0 -0.22,0 -0.33333,0c0.00387,0.97066 0.00773,1.94133 0.01172,2.94141c0.00301,1.24996 0.00602,2.49992 0.00911,3.78776c0.00387,1.2491 0.00774,2.4982 0.01172,3.78516c-0.03255,2.98568 -0.03255,2.98568 -0.36589,3.31901c-0.1708,-4.67459 -0.14011,-9.32475 0,-14c0.5,-0.16667 0.5,-0.16667 0.83333,-0.16667z" fill="#050605"/><path d="M259.16667,113c0.055,0 0.11,0 0.16667,0c0,4.125 0,8.25 0,12.5c6.105,0 12.21,0 18.5,0c0,0.055 0,0.11 0,0.16667c-6.38,0 -12.76,0 -19.33333,0c0.165,-0.0825 0.165,-0.0825 0.33333,-0.16667c0,-2.09 0,-4.18 0,-6.33333c0.11,0 0.22,0 0.33333,0c0,-2.035 0,-4.07 0,-6.16667z" fill="#585858"/><path d="M243.33333,186.33333c0.33,0 0.66,0 1,0c0,0.495 0,0.99 0,1.5c1.87,0 3.74,0 5.66667,0c0,0.275 0,0.55 0,0.83333c-2.2,0 -4.4,0 -6.66667,0c0,-0.77 0,-1.54 0,-2.33333z" fill="#e0e0e0"/><path d="M221,54.66667c0,0.275 0,0.55 0,0.83333c-3.465,0 -6.93,0 -10.5,0c0,-0.22 0,-0.44 0,-0.66667c1.71875,-0.02779 3.4375,-0.05557 5.15625,-0.08333c1.43569,-0.0232 1.43569,-0.0232 2.90039,-0.04687c2.27669,-0.03646 2.27669,-0.03646 2.44336,-0.03646z" fill="#fbfcfc"/><path d="M38,131.16667c0.11,0 0.22,0 0.33333,0c0,1.595 0,3.19 0,4.83333c0.11,0.055 0.22,0.11 0.33333,0.16667c-0.11,0 -0.22,0 -0.33333,0c-0.055,1.595 -0.11,3.19 -0.16667,4.83333c0.275,0 0.55,0 0.83333,0c0,6.105 0,12.21 0,18.5c-0.055,0 -0.11,0 -0.16667,0c0,-6.05 0,-12.1 0,-18.33333c-0.33,0 -0.66,0 -1,0c0,-1.65 0,-3.3 0,-5c-0.165,-0.055 -0.33,-0.11 -0.5,-0.16667c0.165,0 0.33,0 0.5,0c0.055,-1.595 0.11,-3.19 0.16667,-4.83333z" fill="#797979"/><path d="M73.33333,51c1.47452,0.16384 1.74711,0.22977 2.83333,1c-0.5,0 -0.5,0 -1.16667,-0.33333c-0.495,-0.0825 -0.495,-0.0825 -1,-0.16667c0,8.635 0,17.27 0,26.16667c-0.385,0 -0.77,0 -1.16667,0c0,-0.055 0,-0.11 0,-0.16667c0.33,0 0.66,0 1,0c0,-7.645 0,-15.29 0,-23.16667c-0.165,0 -0.33,0 -0.5,0c0,-1.1 0,-2.2 0,-3.33333z" fill="#b4b4b4"/><path d="M194.33333,54.83333c3.41,0 6.82,0 10.33333,0c0,0.22 0,0.44 0,0.66667c-3.41,0 -6.82,0 -10.33333,0c0,-0.22 0,-0.44 0,-0.66667z" fill="#fcfcfc"/><path d="M53,186.5c0.275,0 0.55,0 0.83333,0c0,0.715 0,1.43 0,2.16667c-2.2,0 -4.4,0 -6.66667,0c0,-0.275 0,-0.55 0,-0.83333c1.925,0 3.85,0 5.83333,0c0,-0.44 0,-0.88 0,-1.33333z" fill="#e1e1e1"/><path d="M174.5,28c4.4,0 8.8,0 13.33333,0c0,0.165 0,0.33 0,0.5c-4.4,0 -8.8,0 -13.33333,0c0,-0.165 0,-0.33 0,-0.5z" fill="#a4a4a4"/><path d="M155.66667,28c4.4,0 8.8,0 13.33333,0c0,0.165 0,0.33 0,0.5c-4.4,0 -8.8,0 -13.33333,0c0,-0.165 0,-0.33 0,-0.5z" fill="#a4a4a4"/><path d="M102.5,28c4.4,0 8.8,0 13.33333,0c0,0.165 0,0.33 0,0.5c-4.4,0 -8.8,0 -13.33333,0c0,-0.165 0,-0.33 0,-0.5z" fill="#a4a5a4"/><path d="M83.16667,28c4.4,0 8.8,0 13.33333,0c0,0.165 0,0.33 0,0.5c-4.4,0 -8.8,0 -13.33333,0c0,-0.165 0,-0.33 0,-0.5z" fill="#a4a4a4"/><path d="M53.83333,28c4.4,0 8.8,0 13.33333,0c0,0.165 0,0.33 0,0.5c-4.4,0 -8.8,0 -13.33333,0c0,-0.165 0,-0.33 0,-0.5z" fill="#a4a5a4"/><path d="M233.83333,27.33333c0.77,0 1.54,0 2.33333,0c0,2.585 0,5.17 0,7.83333c-0.22,0 -0.44,0 -0.66667,0c0,-2.31 0,-4.62 0,-7c-0.55,0 -1.1,0 -1.66667,0c0,-0.275 0,-0.55 0,-0.83333z" fill="#f1f1f0"/><path d="M160.33333,155.66667c3.245,0 6.49,0 9.83333,0c0,0.22 0,0.44 0,0.66667c-3.245,0 -6.49,0 -9.83333,0c0,-0.22 0,-0.44 0,-0.66667z" fill="#f6f7f6"/><path d="M82,28.66667c0.055,0 0.11,0 0.16667,0c0,8.745 0,17.49 0,26.5c-0.11,0 -0.22,0 -0.33333,0c0,-1.65 0,-3.3 0,-5c-1.31965,0.2543 -1.31965,0.2543 -2.34375,0.85417c-0.21656,0.15812 -0.43313,0.31625 -0.65625,0.47917c-0.11,-0.055 -0.22,-0.11 -0.33333,-0.16667c1.27558,-1.15053 1.75011,-1.30557 3.5,-1.5c0,-6.985 0,-13.97 0,-21.16667z" fill="#aaaaaa"/><path d="M236.83333,33.83333c2.75,0 5.5,0 8.33333,0c-0.11,0.055 -0.22,0.11 -0.33333,0.16667c0,0.495 0,0.99 0,1.5c-0.99,0 -1.98,0 -3,0c0,-0.495 0,-0.99 0,-1.5c-1.65,0 -3.3,0 -5,0c0,-0.055 0,-0.11 0,-0.16667z" fill="#a0a1a0"/><path d="M217.5,27.33333c2.31,0 4.62,0 7,0c0,0.275 0,0.55 0,0.83333c-2.31,0 -4.62,0 -7,0c0,-0.275 0,-0.55 0,-0.83333z" fill="#efefef"/><path d="M201.16667,27.33333c2.31,0 4.62,0 7,0c0,0.275 0,0.55 0,0.83333c-2.31,0 -4.62,0 -7,0c0,-0.275 0,-0.55 0,-0.83333z" fill="#eeeeee"/><path d="M37.33333,48.33333c0.55,0 1.1,0 1.66667,0c0,2.035 0,4.07 0,6.16667c-0.2475,0.0825 -0.2475,0.0825 -0.5,0.16667c0,-1.98 0,-3.96 0,-6c-0.33,0 -0.66,0 -1,0c0,4.29 0,8.58 0,13c-0.055,0 -0.11,0 -0.16667,0c0,-4.4 0,-8.8 0,-13.33333z" fill="#212221"/><path d="M68,109.5c0.97588,0.01524 1.95159,0.04145 2.92708,0.07292c0.5399,0.01697 1.0798,0.03395 1.63607,0.05143c0.41916,0.01397 0.83832,0.02793 1.27018,0.04232c-1.43144,0.95429 -12.78097,0.35586 -13.86458,0.35417c-3.70573,-0.00451 -3.70573,-0.00451 -7.48633,-0.00912c-2.8788,-0.0058 -2.8788,-0.0058 -5.81576,-0.01172c0,-0.055 0,-0.11 0,-0.16667c1.52603,-0.0101 3.05207,-0.0202 4.62435,-0.0306c2.94454,-0.02095 2.94454,-0.02095 5.94857,-0.04232c1.9626,-0.01353 3.92519,-0.02707 5.94726,-0.04101c2.64173,0.44901 2.64173,0.44901 4.81315,-0.2194z" fill="#0e0e0e"/><path d="M37.66667,103.66667c0.275,0 0.55,0 0.83333,0c0,2.145 0,4.29 0,6.5c-0.275,0 -0.55,0 -0.83333,0c0,-2.145 0,-4.29 0,-6.5z" fill="#f2f2f2"/><path d="M226.33333,54.33333c1.43749,-0.00894 2.87499,-0.01544 4.3125,-0.02083c0.80051,-0.00387 1.60102,-0.00774 2.42578,-0.01172c1.92839,0.03255 1.92839,0.03255 2.26172,0.36588c-2.86,0 -5.72,0 -8.66667,0c0,0.33 0,0.66 0,1c-0.055,0.11 -0.11,0.22 -0.16667,0.33333c4.07,0 8.14,0 12.33333,0c0,0.055 0,0.11 0,0.16667c-4.125,0 -8.25,0 -12.5,0c0,-0.605 0,-1.21 0,-1.83333z" fill="#343434"/><path d="M217.16667,26.83333c2.585,0 5.17,0 7.83333,0c0,0.605 0,1.21 0,1.83333c-1.155,0 -2.31,0 -3.5,0c0,-0.055 0,-0.11 0,-0.16667c-1.375,-0.055 -2.75,-0.11 -4.16667,-0.16667c0,-0.385 0,-0.77 0,-1.16667c-0.055,-0.11 -0.11,-0.22 -0.16667,-0.33333zM217.5,27.33333c0,0.275 0,0.55 0,0.83333c2.31,0 4.62,0 7,0c0,-0.275 0,-0.55 0,-0.83333c-2.31,0 -4.62,0 -7,0z" fill="#515151"/><path d="M276.16667,127c0.11,0 0.22,0 0.33333,0c0,4.565 0,9.13 0,13.83333c0.385,0 0.77,0 1.16667,0c0,0.11 0,0.22 0,0.33333c-0.495,0 -0.99,0 -1.5,0c0,-4.675 0,-9.35 0,-14.16667z" fill="#050505"/><path d="M202.56315,26.81706c0.7251,0.00193 1.4502,0.00387 2.19727,0.00586c0.72553,0.0015 1.45105,0.00301 2.19857,0.00456c0.8453,0.0029 0.8453,0.0029 1.70768,0.00586c-0.11,0.11 -0.22,0.22 -0.33333,0.33333c0,0.385 0,0.77 0,1.16667c-2.0625,0.0825 -2.0625,0.0825 -4.16667,0.16667c0,0.055 0,0.11 0,0.16667c-1.155,0 -2.31,0 -3.5,0c0,-1.83176 0,-1.83176 1.89648,-1.84961zM201.16667,27.33333c0,0.275 0,0.55 0,0.83333c2.31,0 4.62,0 7,0c0,-0.275 0,-0.55 0,-0.83333c-2.31,0 -4.62,0 -7,0z" fill="#4e4e4e"/><path d="M258.5,47.33333c0.055,0 0.11,0 0.16667,0c0,2.42 0,4.84 0,7.33333c-0.99,0 -1.98,0 -3,0c0,0.33 0,0.66 0,1c0.99,0 1.98,0 3,0c0,0.935 0,1.87 0,2.83333c-0.11,0 -0.22,0 -0.33333,0c-0.055,-0.77 -0.11,-1.54 -0.16667,-2.33333c-0.88,-0.055 -1.76,-0.11 -2.66667,-0.16667c0,-0.55 0,-1.1 0,-1.66667c0.935,0 1.87,0 2.83333,0c-0.00193,-0.25395 -0.00387,-0.50789 -0.00586,-0.76953c-0.0091,-2.08388 0.02553,-4.15159 0.17253,-6.23047z" fill="#090909"/><path d="M38,159.5c0.11,0 0.22,0 0.33333,0c0.01732,3.33813 0.00542,6.66576 -0.16667,10c-0.33,0 -0.66,0 -1,0c0.2475,-0.0825 0.2475,-0.0825 0.5,-0.16667c0,-1.54 0,-3.08 0,-4.66667c-0.165,0 -0.33,0 -0.5,0c0,-0.11 0,-0.22 0,-0.33333c0.165,0 0.33,0 0.5,0c0,-0.275 0,-0.55 0,-0.83333c0.11,0 0.22,0 0.33333,0c0,-1.32 0,-2.64 0,-4z" fill="#878787"/><path d="M38.5,55.66667c2.695,0 5.39,0 8.16667,0c0,0.055 0,0.11 0,0.16667c-1.53316,0.19164 -3.03858,0.22388 -4.58333,0.26042c-1.0175,0.02406 -2.035,0.04813 -3.08333,0.07292c-0.055,2.035 -0.11,4.07 -0.16667,6.16667c-0.385,0 -0.77,0 -1.16667,0c0,-0.055 0,-0.11 0,-0.16667c0.275,0 0.55,0 0.83333,0c0,-2.145 0,-4.29 0,-6.5z" fill="#0e0f0f"/><path d="M250.66667,54.66667c1.54,0 3.08,0 4.66667,0c0,0.33 0,0.66 0,1c-1.54,0 -3.08,0 -4.66667,0c0,-0.33 0,-0.66 0,-1z" fill="#f7f8f7"/><path d="M239,54.66667c1.54,0 3.08,0 4.66667,0c0,0.33 0,0.66 0,1c-1.54,0 -3.08,0 -4.66667,0c0,-0.33 0,-0.66 0,-1z" fill="#f8f8f8"/><path d="M104,54.83333c3.39322,-0.02083 6.77606,0.03114 10.16667,0.16667c0,0.165 0,0.33 0,0.5c-1.98,0 -3.96,0 -6,0c0,-0.11 0,-0.22 0,-0.33333c-1.375,0 -2.75,0 -4.16667,0c0,-0.11 0,-0.22 0,-0.33333z" fill="#868686"/><path d="M170.66667,155.66667c3.33785,-0.02037 6.66492,0.02781 10,0.16667c0,0.165 0,0.33 0,0.5c-1.925,0 -3.85,0 -5.83333,0c0,-0.11 0,-0.22 0,-0.33333c-1.375,0 -2.75,0 -4.16667,0c0,-0.11 0,-0.22 0,-0.33333z" fill="#838383"/><path d="M136,54.83333c3.33785,-0.02037 6.66492,0.02781 10,0.16667c0,0.165 0,0.33 0,0.5c-1.925,0 -3.85,0 -5.83333,0c0,-0.11 0,-0.22 0,-0.33333c-1.375,0 -2.75,0 -4.16667,0c0,-0.11 0,-0.22 0,-0.33333z" fill="#848584"/><path d="M37.66667,170c0.275,0 0.55,0 0.83333,0c0,0.88 0,1.76 0,2.66667c0.825,0 1.65,0 2.5,0c0,0.22 0,0.44 0,0.66667c-1.1,0 -2.2,0 -3.33333,0c0,-1.1 0,-2.2 0,-3.33333z" fill="#f8f9f8"/><path d="M193.66667,54.33333c1.74305,-0.00894 3.48611,-0.01544 5.22917,-0.02083c0.97066,-0.00387 1.94133,-0.00774 2.94141,-0.01172c2.32943,0.03255 2.32943,0.03255 2.66276,0.36588c-3.41,0 -6.82,0 -10.33333,0c0,0.33 0,0.66 0,1c0.165,0.055 0.33,0.11 0.5,0.16667c-0.055,0.055 -0.11,0.11 -0.16667,0.16667c-0.275,0 -0.55,0 -0.83333,0c0,-0.55 0,-1.1 0,-1.66667z" fill="#161616"/><path d="M217.16667,27c2.475,0 4.95,0 7.5,0c0,0.055 0,0.11 0,0.16667c-2.42,0 -4.84,0 -7.33333,0c0,0.385 0,0.77 0,1.16667c0.24879,-0.00387 0.49758,-0.00774 0.75391,-0.01172c0.32184,-0.00301 0.64367,-0.00602 0.97526,-0.00911c0.32098,-0.00387 0.64195,-0.00774 0.97266,-0.01172c0.79818,0.03255 0.79818,0.03255 1.13151,0.36588c-0.11,0 -0.22,0 -0.33333,0c0,4.345 0,8.69 0,13.16667c-0.055,0 -0.11,0 -0.16667,0c-0.055,-4.345 -0.11,-8.69 -0.16667,-13.16667c-1.1,-0.055 -2.2,-0.11 -3.33333,-0.16667c0,-0.495 0,-0.99 0,-1.5z" fill="#060606"/><path d="M150,27.33333c1.705,0 3.41,0 5.16667,0c0,0.275 0,0.55 0,0.83333c-1.705,0 -3.41,0 -5.16667,0c0,-0.275 0,-0.55 0,-0.83333z" fill="#ededed"/><path d="M210.16667,54.5c0.055,0 0.11,0 0.16667,0c0,0.385 0,0.77 0,1.16667c1.79863,-0.01887 3.59724,-0.04014 5.39583,-0.0625c1.5024,-0.0174 1.5024,-0.0174 3.03516,-0.03516c2.19764,0.21197 2.19764,0.21197 2.73568,-0.40234c0,0.275 0,0.55 0,0.83333c-3.74,0 -7.48,0 -11.33333,0c0,-0.495 0,-0.99 0,-1.5z" fill="#070606"/><path d="M208.83333,28c2.695,0 5.39,0 8.16667,0c0,0.165 0,0.33 0,0.5c-2.695,0 -5.39,0 -8.16667,0c0,-0.165 0,-0.33 0,-0.5z" fill="#a4a4a4"/><path d="M225,28c2.695,0 5.39,0 8.16667,0c0,0.165 0,0.33 0,0.5c-2.695,0 -5.39,0 -8.16667,0c0,-0.165 0,-0.33 0,-0.5z" fill="#a5a5a5"/><path d="M192.5,28c2.695,0 5.39,0 8.16667,0c0,0.165 0,0.33 0,0.5c-2.695,0 -5.39,0 -8.16667,0c0,-0.165 0,-0.33 0,-0.5z" fill="#a4a4a4"/><path d="M97.16667,27.33333c1.595,0 3.19,0 4.83333,0c0,0.275 0,0.55 0,0.83333c-1.595,0 -3.19,0 -4.83333,0c0,-0.275 0,-0.55 0,-0.83333z" fill="#efefef"/><path d="M253.5,34.16667c0.99,0 1.98,0 3,0c0,0.44 0,0.88 0,1.33333c-0.99,0 -1.98,0 -3,0c0,-0.44 0,-0.88 0,-1.33333z" fill="#a3a3a3"/><path d="M244.16667,54.83333c1.925,0 3.85,0 5.83333,0c0,0.22 0,0.44 0,0.66667c-1.925,0 -3.85,0 -5.83333,0c0,-0.22 0,-0.44 0,-0.66667z" fill="#fafafa"/><path d="M116.5,27.33333c1.485,0 2.97,0 4.5,0c0,0.275 0,0.55 0,0.83333c-1.485,0 -2.97,0 -4.5,0c0,-0.275 0,-0.55 0,-0.83333z" fill="#efefef"/><path d="M72.83333,104.5c0,0.11 0,0.22 0,0.33333c-0.21656,0.03781 -0.43313,0.07562 -0.65625,0.11458c-1.20258,0.27607 -2.16889,0.72185 -2.90625,1.73958c-0.54719,0.94298 -0.54719,0.94298 -0.9375,2.64583c1.65,0 3.3,0 5,0c0,0.11 0,0.22 0,0.33333c-0.85764,0.00447 -1.71528,0.00772 -2.57292,0.01042c-0.4776,0.00193 -0.9552,0.00387 -1.44726,0.00586c-1.14649,-0.01628 -1.14649,-0.01628 -1.31315,-0.18294c-0.11709,-1.36537 0.6554,-2.43612 1.34375,-3.5625c0.97771,-0.87369 2.17879,-1.4375 3.48958,-1.4375z" fill="#9fa0a0"/><path d="M169.66667,27.33333c1.43,0 2.86,0 4.33333,0c0,0.275 0,0.55 0,0.83333c-1.43,0 -2.86,0 -4.33333,0c0,-0.275 0,-0.55 0,-0.83333z" fill="#ececec"/><path d="M258.16667,42.83333c0.62895,0.62894 0.17714,1.77266 0.18294,2.66211c-0.00194,1.04994 -0.00387,2.09988 -0.00586,3.18164c-0.00226,1.57556 -0.00226,1.57556 -0.00456,3.18294c-0.00194,0.81619 -0.00387,1.63238 -0.00586,2.47331c-0.055,0 -0.11,0 -0.16667,0c-0.19858,-7.54255 -0.19858,-7.54255 -0.16667,-11.16667c-0.8403,0.18494 -1.52412,0.39041 -2.25,0.85417c-0.14266,0.0898 -0.28531,0.17961 -0.43229,0.27213c-0.10484,0.06832 -0.20969,0.13664 -0.31771,0.20703c0.59301,-1.18602 1.8304,-1.86568 3.16667,-1.66667z" fill="#747474"/><path d="M73.33333,109.83333c0.165,0 0.33,0 0.5,0c0,3.135 0,6.27 0,9.5c-0.275,0 -0.55,0 -0.83333,0c0,-0.11 0,-0.22 0,-0.33333c0.165,0 0.33,0 0.5,0c-0.055,-3.025 -0.11,-6.05 -0.16667,-9.16667z" fill="#030303"/><path d="M247.5,47.33333c0.055,0 0.11,0 0.16667,0c0,2.31 0,4.62 0,7c0.935,0 1.87,0 2.83333,0c-0.92107,0.61404 -2.09452,0.35049 -3.16667,0.33333c-0.00447,-1.19097 -0.00772,-2.38194 -0.01042,-3.57292c-0.00193,-0.66322 -0.00387,-1.32645 -0.00586,-2.00977c0.01628,-1.58398 0.01628,-1.58398 0.18294,-1.75065z" fill="#232323"/><path d="M246.5,42.83333c0.62894,0.62894 0.17714,1.77266 0.18294,2.66211c-0.00194,1.04994 -0.00387,2.09988 -0.00586,3.18164c-0.0015,1.05037 -0.00301,2.10074 -0.00456,3.18294c-0.00194,0.81619 -0.00387,1.63238 -0.00586,2.47331c-0.055,0 -0.11,0 -0.16667,0c-0.19858,-7.54255 -0.19858,-7.54255 -0.16667,-11.16667c-0.55,0.11 -1.1,0.22 -1.66667,0.33333c0.55516,-0.7106 0.95228,-0.74978 1.83333,-0.66667z" fill="#8b8b8b"/><path d="M188.33333,27.33333c1.21,0 2.42,0 3.66667,0c0,0.275 0,0.55 0,0.83333c-1.21,0 -2.42,0 -3.66667,0c0,-0.275 0,-0.55 0,-0.83333z" fill="#ececec"/><path d="M73.16667,119.33333c0.055,0 0.11,0 0.16667,0c0.14742,3.34538 0.16165,6.65505 0,10c0.165,0.055 0.33,0.11 0.5,0.16667c-0.33,0 -0.66,0 -1,0c0.11,-3.355 0.22,-6.71 0.33333,-10.16667z" fill="#5c5d5d"/></g></svg>